<svg width="424" height="79" viewBox="0 0 424 79" fill="none" xmlns="http://www.w3.org/2000/svg">
<path d="M0 0L10.0157 0V79H0L0 0Z" fill="#9092FF"/>
<path d="M15.0236 0L25.874 0V79H15.0236V0Z" fill="#9092FF"/>
<path d="M30.8819 0L33.3858 0V79H30.8819V0Z" fill="#9092FF"/>
<path d="M40.063 0L41.7323 0V79H40.063V0Z" fill="#9092FF"/>
<path d="M50.9134 0L57.5906 0V79H50.9134V0Z" fill="#9092FF"/>
<path d="M71.7795 0L93.4803 0V79H71.7795V0Z" fill="#9092FF"/>
<path d="M105.165 0L108.504 0V79H105.165V0Z" fill="#9092FF"/>
<path d="M115.181 0L121.024 0V79H115.181V0Z" fill="#9092FF"/>
<path d="M136.882 0L147.732 0V79H136.882V0Z" fill="#9092FF"/>
<path d="M152.74 0L164.425 0V79H152.74V0Z" fill="#9092FF"/>
<path d="M167.764 0L173.606 0V79H167.764V0Z" fill="#9092FF"/>
<path d="M180.283 0L181.953 0V79H180.283V0Z" fill="#9092FF"/>
<path d="M191.134 0L197.811 0V79H191.134V0Z" fill="#9092FF"/>
<path d="M202.819 0L219.512 0V79H202.819V0Z" fill="#9092FF"/>
<path d="M231.197 0L238.709 0V79H231.197V0Z" fill="#9092FF"/>
<path d="M243.717 0L266.252 0V79H243.717V0Z" fill="#9092FF"/>
<path d="M279.606 0L287.953 0V79H279.606V0Z" fill="#9092FF"/>
<path d="M297.134 0L303.811 0V79H297.134V0Z" fill="#9092FF"/>
<path d="M308.819 0L315.496 0V79H308.819V0Z" fill="#9092FF"/>
<path d="M327.181 0L339.701 0V79H327.181V0Z" fill="#9092FF"/>
<path d="M344.709 0L346.378 0V79H344.709V0Z" fill="#9092FF"/>
<path d="M349.717 0L358.063 0V79H349.717V0Z" fill="#9092FF"/>
<path d="M367.244 0L370.583 0V79H367.244V0Z" fill="#9092FF"/>
<path d="M377.26 0L394.787 0V79H377.26V0Z" fill="#9092FF"/>
<path d="M406.472 0L408.976 0V79H406.472V0Z" fill="#9092FF"/>
<path d="M417.323 0L424 0V79H417.323V0Z" fill="#9092FF"/>
</svg>
