<svg width="55" height="44" viewBox="0 0 55 44" fill="none" xmlns="http://www.w3.org/2000/svg">
<g filter="url(#filter0_d_1317_350)">
<path d="M35.296 27.2649H27.2632V21.486C27.2632 19.9533 27.8721 18.4834 28.9558 17.3996C30.0396 16.3159 31.5095 15.707 33.0422 15.707H35.296C35.7504 16.9928 36.6448 18.0766 37.821 18.7667C38.9972 19.4569 40.3796 19.7089 41.7237 19.4784C43.0678 19.2479 44.2871 18.5496 45.1662 17.5069C46.0452 16.4643 46.5273 15.1445 46.5273 13.7807C46.5273 12.417 46.0452 11.0971 45.1662 10.0545C44.2871 9.01185 43.0678 8.31355 41.7237 8.08301C40.3796 7.85248 38.9972 8.10456 37.821 8.7947C36.6448 9.48483 35.7504 10.5686 35.296 11.8544H33.0422C30.4877 11.8544 28.0379 12.8691 26.2316 14.6754C24.4253 16.4817 23.4106 18.9315 23.4106 21.486V27.2649H19.2304C18.776 25.9791 17.8816 24.8954 16.7054 24.2053C15.5292 23.5151 14.1468 23.263 12.8027 23.4936C11.4586 23.7241 10.2393 24.4224 9.36022 25.465C8.48119 26.5077 7.99905 27.8275 7.99905 29.1913C7.99905 30.555 8.48119 31.8749 9.36022 32.9175C10.2393 33.9601 11.4586 34.6584 12.8027 34.889C14.1468 35.1195 15.5292 34.8674 16.7054 34.1773C17.8816 33.4871 18.776 32.4034 19.2304 31.1176H35.296C35.7504 32.4034 36.6448 33.4871 37.821 34.1773C38.9972 34.8674 40.3796 35.1195 41.7237 34.889C43.0678 34.6584 44.2871 33.9601 45.1662 32.9175C46.0452 31.8749 46.5273 30.555 46.5273 29.1913C46.5273 27.8275 46.0452 26.5077 45.1662 25.465C44.2871 24.4224 43.0678 23.7241 41.7237 23.4936C40.3796 23.263 38.9972 23.5151 37.821 24.2053C36.6448 24.8954 35.7504 25.9791 35.296 27.2649V27.2649ZM11.8526 29.1913C11.8526 28.9383 11.9024 28.6878 11.9992 28.454C12.096 28.2203 12.2379 28.0079 12.4167 27.829C12.5956 27.6501 12.808 27.5081 13.0417 27.4113C13.2754 27.3145 13.526 27.2647 13.779 27.2647C14.0319 27.2647 14.2825 27.3145 14.5162 27.4113C14.7499 27.5081 14.9623 27.6501 15.1412 27.829C15.3201 28.0079 15.4619 28.2203 15.5587 28.454C15.6555 28.6878 15.7053 28.9383 15.7053 29.1913C15.7052 29.7021 15.5022 30.192 15.141 30.5532C14.7797 30.9144 14.2898 31.1173 13.779 31.1173C13.2681 31.1173 12.7782 30.9144 12.4169 30.5532C12.0557 30.192 11.8527 29.7021 11.8526 29.1913V29.1913ZM38.8211 13.7807C38.8211 13.5277 38.8709 13.2772 38.9677 13.0434C39.0645 12.8097 39.2063 12.5973 39.3852 12.4184C39.5641 12.2395 39.7765 12.0976 40.0102 12.0008C40.2439 11.9039 40.4945 11.8541 40.7474 11.8541C41.0004 11.8541 41.251 11.9039 41.4847 12.0008C41.7184 12.0976 41.9308 12.2395 42.1097 12.4184C42.2885 12.5973 42.4304 12.8097 42.5272 13.0434C42.624 13.2772 42.6738 13.5277 42.6738 13.7807C42.6737 14.2915 42.4707 14.7814 42.1095 15.1426C41.7482 15.5038 41.2583 15.7067 40.7474 15.7067C40.2366 15.7067 39.7467 15.5038 39.3854 15.1426C39.0242 14.7814 38.8212 14.2915 38.8211 13.7807ZM38.8211 29.1913C38.8211 28.9383 38.8709 28.6878 38.9677 28.454C39.0645 28.2203 39.2063 28.0079 39.3852 27.829C39.5641 27.6501 39.7765 27.5081 40.0102 27.4113C40.2439 27.3145 40.4945 27.2647 40.7474 27.2647C41.0004 27.2647 41.251 27.3145 41.4847 27.4113C41.7184 27.5081 41.9308 27.6501 42.1097 27.829C42.2885 28.0079 42.4304 28.2203 42.5272 28.454C42.624 28.6878 42.6738 28.9383 42.6738 29.1913C42.6737 29.7021 42.4707 30.192 42.1095 30.5532C41.7482 30.9144 41.2583 31.1173 40.7474 31.1173C40.2366 31.1173 39.7467 30.9144 39.3854 30.5532C39.0242 30.192 38.8212 29.7021 38.8211 29.1913Z" fill="url(#paint0_linear_1317_350)"/>
<path d="M27.7418 26.7863H34.9674C35.4884 25.5342 36.4037 24.4819 37.5788 23.7925C38.8524 23.0452 40.3492 22.7722 41.8046 23.0219C43.26 23.2715 44.5803 24.0276 45.5321 25.1565C46.4839 26.2855 47.006 27.7146 47.006 29.1913C47.006 30.6679 46.4839 32.097 45.5321 33.226C44.5803 34.355 43.26 35.1111 41.8046 35.3607C40.3492 35.6103 38.8524 35.3374 37.5788 34.5901C36.4037 33.9006 35.4884 32.8484 34.9674 31.5962H19.559C19.038 32.8484 18.1227 33.9006 16.9476 34.5901C15.674 35.3374 14.1772 35.6103 12.7218 35.3607C11.2664 35.1111 9.94612 34.355 8.9943 33.226C8.04249 32.097 7.52044 30.6679 7.52044 29.1913C7.52044 27.7146 8.04249 26.2855 8.9943 25.1565C9.94612 24.0276 11.2664 23.2715 12.7218 23.0219C14.1772 22.7722 15.674 23.0452 16.9476 23.7925C18.1227 24.4819 19.038 25.5342 19.559 26.7863H22.9319V21.486C22.9319 18.8046 23.9971 16.233 25.8932 14.337C27.7892 12.441 30.3608 11.3758 33.0422 11.3758H34.9674C35.4884 10.1236 36.4037 9.07135 37.5788 8.3819C38.8524 7.63462 40.3492 7.36167 41.8046 7.61129C43.26 7.86091 44.5803 8.61702 45.5321 9.74598C46.4839 10.8749 47.006 12.3041 47.006 13.7807C47.006 15.2574 46.4839 16.6865 45.5321 17.8154C44.5803 18.9444 43.26 19.7005 41.8046 19.9501C40.3492 20.1997 38.8524 19.9268 37.5788 19.1795C36.4037 18.4901 35.4884 17.4378 34.9674 16.1856H33.0422C31.6364 16.1856 30.2883 16.7441 29.2942 17.7381C28.3002 18.7321 27.7418 20.0802 27.7418 21.486V26.7863ZM12.4414 28.6371C12.3686 28.8128 12.3312 29.0011 12.3312 29.1912C12.3313 29.5751 12.4839 29.9433 12.7554 30.2147C13.0268 30.4862 13.395 30.6387 13.779 30.6387C14.1629 30.6387 14.5311 30.4862 14.8026 30.2147C15.0741 29.9433 15.2266 29.5751 15.2267 29.1912C15.2267 29.0011 15.1893 28.8128 15.1165 28.6371C15.0438 28.4614 14.9372 28.3018 14.8027 28.1674C14.6683 28.0329 14.5087 27.9263 14.333 27.8535C14.1574 27.7807 13.9691 27.7433 13.779 27.7433C13.5888 27.7433 13.4006 27.7807 13.2249 27.8535C13.0492 27.9263 12.8896 28.0329 12.7552 28.1674C12.6208 28.3018 12.5141 28.4614 12.4414 28.6371ZM39.4099 13.2266C39.3371 13.4022 39.2997 13.5905 39.2997 13.7806C39.2998 14.1646 39.4523 14.5327 39.7238 14.8042C39.9953 15.0756 40.3635 15.2281 40.7474 15.2281C41.1314 15.2281 41.4996 15.0756 41.771 14.8042C42.0425 14.5327 42.1951 14.1646 42.1951 13.7806C42.1952 13.5905 42.1578 13.4022 42.085 13.2266C42.0123 13.0509 41.9056 12.8913 41.7712 12.7568C41.6368 12.6224 41.4772 12.5157 41.3015 12.4429C41.1259 12.3702 40.9376 12.3327 40.7474 12.3327C40.5573 12.3327 40.369 12.3702 40.1934 12.4429C40.0177 12.5157 39.8581 12.6224 39.7237 12.7568C39.5892 12.8913 39.4826 13.0509 39.4099 13.2266ZM39.4099 28.6371C39.3371 28.8128 39.2997 29.0011 39.2997 29.1912C39.2998 29.5751 39.4523 29.9433 39.7238 30.2147C39.9953 30.4862 40.3635 30.6387 40.7474 30.6387C41.1314 30.6387 41.4996 30.4862 41.771 30.2147C42.0425 29.9433 42.1951 29.5751 42.1951 29.1912C42.1952 29.0011 42.1578 28.8128 42.085 28.6371C42.0123 28.4614 41.9056 28.3018 41.7712 28.1674C41.6368 28.0329 41.4772 27.9263 41.3015 27.8535C41.1258 27.7807 40.9376 27.7433 40.7474 27.7433C40.5573 27.7433 40.369 27.7807 40.1934 27.8535C40.0177 27.9263 39.8581 28.0329 39.7237 28.1674C39.5892 28.3018 39.4826 28.4614 39.4099 28.6371Z" stroke="white" stroke-width="0.957226"/>
</g>
<defs>
<filter id="filter0_d_1317_350" x="0.26464" y="0.625736" width="53.9961" height="42.4395" filterUnits="userSpaceOnUse" color-interpolation-filters="sRGB">
<feFlood flood-opacity="0" result="BackgroundImageFix"/>
<feColorMatrix in="SourceAlpha" type="matrix" values="0 0 0 0 0 0 0 0 0 0 0 0 0 0 0 0 0 0 127 0" result="hardAlpha"/>
<feOffset dy="0.359631"/>
<feGaussianBlur stdDeviation="3.38819"/>
<feComposite in2="hardAlpha" operator="out"/>
<feColorMatrix type="matrix" values="0 0 0 0 1 0 0 0 0 1 0 0 0 0 1 0 0 0 0.2 0"/>
<feBlend mode="normal" in2="BackgroundImageFix" result="effect1_dropShadow_1317_350"/>
<feBlend mode="normal" in="SourceGraphic" in2="effect1_dropShadow_1317_350" result="shape"/>
</filter>
<linearGradient id="paint0_linear_1317_350" x1="29.0979" y1="34.8001" x2="28.7464" y2="7.14211" gradientUnits="userSpaceOnUse">
<stop stop-color="#D8D479"/>
<stop offset="0.497917" stop-color="#72CDF3"/>
<stop offset="1" stop-color="#8E97FF"/>
</linearGradient>
</defs>
</svg>
