<svg width="864" height="585" viewBox="0 0 864 585" fill="none" xmlns="http://www.w3.org/2000/svg">
<g filter="url(#filter0_d_1204_347)">
<path d="M178.159 431.485H166.962V434.597H170.716V461H174.405V434.597H178.159V431.485ZM190.763 461.353C194.099 461.353 196.473 460.005 196.473 455.803V436.682C196.473 432.479 194.099 431.132 190.763 431.132C187.458 431.132 185.084 432.479 185.084 436.682V455.803C185.084 460.005 187.458 461.353 190.763 461.353ZM190.763 458.209C189.672 458.209 188.774 457.663 188.774 455.771V436.714C188.774 434.821 189.672 434.276 190.763 434.276C191.886 434.276 192.752 434.821 192.752 436.714V455.771C192.752 457.663 191.886 458.209 190.763 458.209ZM219.028 457.888V431.485H215.338V461H223.551V457.888H219.028ZM231.781 461H235.471V431.485H231.781V461ZM243.376 431.485L246.745 461H253.322L256.69 431.485H253.097L250.274 457.631H249.793L246.97 431.485H243.376ZM272.645 434.597V431.485H264.592V461H272.645V457.888H268.281V447.75H272.58V444.67H268.281V434.597H272.645ZM300.621 461H304.215L300.846 431.485H294.269L290.901 461H294.494L295.135 455.001H299.98L300.621 461ZM295.488 451.889L297.317 434.853H297.798L299.627 451.889H295.488ZM312.116 461H315.549V440.564L315.453 437.452H315.709L320.393 461H325.27V431.485H321.837V451.921L321.933 455.033H321.677L316.993 431.485H312.116V461ZM339.917 431.485H333.597V461H339.917C344.152 461 344.954 459.3 344.954 455.418V437.067C344.954 433.185 344.152 431.485 339.917 431.485ZM341.265 455.45C341.265 457.343 340.751 457.888 339.115 457.888H337.286V434.597H339.115C340.751 434.597 341.265 435.142 341.265 437.035V455.45ZM372.93 445.889V445.697C374.566 444.959 375.048 443.612 375.048 441.526V437.067C375.048 433.185 374.246 431.485 370.139 431.485H363.851V461H370.171C374.406 461 375.176 459.3 375.176 455.418V450.285C375.176 448.103 374.599 446.659 372.93 445.889ZM369.273 434.597C370.941 434.597 371.422 435.142 371.422 437.035V442.072C371.422 444.093 370.813 444.638 369.209 444.638H367.541V434.597H369.273ZM371.487 455.418C371.487 457.311 370.973 457.856 369.337 457.856H367.541V447.173H369.273C370.877 447.173 371.487 447.686 371.487 449.739V455.418ZM395.237 461L392.927 450.83C394.146 450.028 394.788 448.584 394.788 446.403V437.067C394.788 433.185 394.018 431.485 390.008 431.485H383.527V461H387.217V451.76H389.174C389.398 451.76 389.655 451.76 389.88 451.728L391.901 461H395.237ZM389.045 449.066H387.217V434.597H389.045C390.682 434.597 391.163 435.11 391.163 437.035V446.627C391.163 448.52 390.682 449.066 389.045 449.066ZM411.181 434.597V431.485H403.128V461H411.181V457.888H406.818V447.75H411.117V444.67H406.818V434.597H411.181ZM428.392 461H431.985L428.616 431.485H422.04L418.671 461H422.264L422.906 455.001H427.75L428.392 461ZM423.259 451.889L425.087 434.853H425.569L427.397 451.889H423.259ZM448.464 431.485H437.268V434.597H441.021V461H444.711V434.597H448.464V431.485ZM464.056 431.485V444.863H459.981V431.485H456.292V461H459.981V448.007H464.056V461H467.745V431.485H464.056ZM484.133 434.597V431.485H476.081V461H484.133V457.888H479.77V447.75H484.069V444.67H479.77V434.597H484.133ZM508.517 461.353C511.854 461.353 514.228 460.005 514.228 455.803V436.682C514.228 432.479 511.854 431.132 508.517 431.132C505.213 431.132 502.839 432.479 502.839 436.682V455.803C502.839 460.005 505.213 461.353 508.517 461.353ZM508.517 458.209C507.426 458.209 506.528 457.663 506.528 455.771V436.714C506.528 434.821 507.426 434.276 508.517 434.276C509.64 434.276 510.506 434.821 510.506 436.714V455.771C510.506 457.663 509.64 458.209 508.517 458.209ZM529.001 431.485H522.552V461H526.242V453.974H529.001C533.043 453.974 533.813 452.306 533.813 448.424V437.035C533.813 433.185 533.043 431.485 529.001 431.485ZM530.188 448.456C530.188 450.349 529.707 450.894 528.07 450.894H526.242V434.597H528.07C529.707 434.597 530.188 435.11 530.188 437.003V448.456ZM550.319 434.597V431.485H542.266V461H550.319V457.888H545.956V447.75H550.255V444.67H545.956V434.597H550.319ZM558.484 461H561.916V440.564L561.82 437.452H562.077L566.761 461H571.637V431.485H568.204V451.921L568.301 455.033H568.044L563.36 431.485H558.484V461ZM596.151 461.353C599.456 461.353 601.765 460.005 601.765 455.835V451.6C601.765 444.285 594.162 445.537 594.162 440.724V436.682C594.162 434.821 595.028 434.244 596.151 434.244C597.274 434.244 598.14 434.821 598.14 436.682V441.077H601.701V436.65C601.701 432.479 599.423 431.132 596.119 431.132C592.847 431.132 590.537 432.479 590.537 436.65V440.885C590.537 448.199 598.108 446.948 598.108 451.76V455.803C598.108 457.663 597.274 458.241 596.119 458.241C594.996 458.241 594.13 457.663 594.13 455.803V451.408H590.569V455.835C590.569 460.005 592.847 461.353 596.151 461.353ZM615.822 461.353C619.158 461.353 621.532 460.005 621.532 455.803V436.682C621.532 432.479 619.158 431.132 615.822 431.132C612.517 431.132 610.143 432.479 610.143 436.682V455.803C610.143 460.005 612.517 461.353 615.822 461.353ZM615.822 458.209C614.731 458.209 613.833 457.663 613.833 455.771V436.714C613.833 434.821 614.731 434.276 615.822 434.276C616.945 434.276 617.811 434.821 617.811 436.714V455.771C617.811 457.663 616.945 458.209 615.822 458.209ZM635.536 461.353C638.872 461.353 641.246 460.005 641.246 455.803V431.485H637.525V455.771C637.525 457.663 636.658 458.209 635.536 458.209C634.445 458.209 633.546 457.663 633.546 455.771V431.485H629.857V455.803C629.857 460.005 632.231 461.353 635.536 461.353ZM661.281 461L658.971 450.83C660.19 450.028 660.832 448.584 660.832 446.403V437.067C660.832 433.185 660.062 431.485 656.051 431.485H649.571V461H653.26V451.76H655.217C655.442 451.76 655.699 451.76 655.923 451.728L657.944 461H661.281ZM655.089 449.066H653.26V434.597H655.089C656.725 434.597 657.206 435.11 657.206 437.035V446.627C657.206 448.52 656.725 449.066 655.089 449.066ZM674.85 461.385C678.187 461.385 680.561 460.038 680.561 455.835V448.809H676.839V455.835C676.839 457.696 675.973 458.273 674.85 458.273C673.76 458.273 672.861 457.696 672.861 455.835V436.714C672.861 434.821 673.76 434.276 674.85 434.276C675.973 434.276 676.839 434.821 676.839 436.714V443.612H680.561V436.682C680.561 432.479 678.187 431.132 674.85 431.132C671.546 431.132 669.172 432.479 669.172 436.682V455.835C669.172 460.038 671.546 461.385 674.85 461.385ZM696.938 434.597V431.485H688.886V461H696.938V457.888H692.575V447.75H696.874V444.67H692.575V434.597H696.938Z" fill="white"/>
</g>
<path d="M716.174 446.931C716.725 446.931 717.228 446.797 717.684 446.528C718.139 446.255 718.504 445.89 718.777 445.435C719.046 444.979 719.18 444.476 719.18 443.925C719.18 443.369 719.046 442.866 718.777 442.415C718.504 441.959 718.139 441.597 717.684 441.328C717.228 441.055 716.725 440.918 716.174 440.918C715.618 440.918 715.115 441.055 714.664 441.328C714.208 441.597 713.846 441.959 713.577 442.415C713.304 442.866 713.168 443.369 713.168 443.925C713.168 444.476 713.304 444.979 713.577 445.435C713.846 445.89 714.208 446.255 714.664 446.528C715.115 446.797 715.618 446.931 716.174 446.931Z" fill="white"/>
<path d="M149.174 447.431C149.725 447.431 150.228 447.297 150.684 447.028C151.139 446.755 151.504 446.39 151.777 445.935C152.046 445.479 152.18 444.976 152.18 444.425C152.18 443.869 152.046 443.366 151.777 442.915C151.504 442.459 151.139 442.097 150.684 441.828C150.228 441.555 149.725 441.418 149.174 441.418C148.618 441.418 148.115 441.555 147.664 441.828C147.208 442.097 146.846 442.459 146.577 442.915C146.304 443.366 146.168 443.869 146.168 444.425C146.168 444.976 146.304 445.479 146.577 445.935C146.846 446.39 147.208 446.755 147.664 447.028C148.115 447.297 148.618 447.431 149.174 447.431Z" fill="white"/>
<path d="M439.092 311.574V293.278H511.788V311.574H486.63V376.918H464.25V311.574H439.092Z" fill="white"/>
<path d="M439.092 311.574H437.739V312.927H439.092V311.574ZM439.092 293.278V291.925H437.739V293.278H439.092ZM511.788 293.278H513.141V291.925H511.788V293.278ZM511.788 311.574V312.927H513.141V311.574H511.788ZM486.63 311.574V310.221H485.277V311.574H486.63ZM486.63 376.918V378.271H487.983V376.918H486.63ZM464.25 376.918H462.897V378.271H464.25V376.918ZM464.25 311.574H465.603V310.221H464.25V311.574ZM440.445 311.574V293.278H437.739V311.574H440.445ZM439.092 294.631H511.788V291.925H439.092V294.631ZM510.435 293.278V311.574H513.141V293.278H510.435ZM511.788 310.221H486.63V312.927H511.788V310.221ZM485.277 311.574V376.918H487.983V311.574H485.277ZM486.63 375.565H464.25V378.271H486.63V375.565ZM465.603 376.918V311.574H462.897V376.918H465.603ZM464.25 310.221H439.092V312.927H464.25V310.221ZM543.204 341.632L541.851 341.615L541.851 341.624V341.632H543.204ZM543.204 376.918V378.271H544.557V376.918H543.204ZM520.66 376.918H519.307V378.271H520.66V376.918ZM520.66 293.278V291.925H519.307V293.278H520.66ZM542.387 293.278H543.74V291.925H542.387V293.278ZM542.387 326.113H541.034V327.466H542.387V326.113ZM543.041 326.113V327.466H543.997L544.316 326.564L543.041 326.113ZM550.106 316.761L550.865 317.881L550.872 317.876L550.106 316.761ZM573.549 316.393L572.838 317.545L572.843 317.547L573.549 316.393ZM581.186 324.725L579.979 325.337L579.983 325.344L581.186 324.725ZM583.881 336.895L582.528 336.887V336.895H583.881ZM583.881 376.918V378.271H585.234V376.918H583.881ZM561.337 376.918H559.984V378.271H561.337V376.918ZM561.337 341.632L559.984 341.621V341.632H561.337ZM559.009 334.322L557.992 335.214L558 335.223L559.009 334.322ZM547.533 332.893L548.212 334.063L548.219 334.059L547.533 332.893ZM544.348 336.323L543.142 335.709L543.138 335.718L544.348 336.323ZM541.851 341.632V376.918H544.557V341.632H541.851ZM543.204 375.565H520.66V378.271H543.204V375.565ZM522.013 376.918V293.278H519.307V376.918H522.013ZM520.66 294.631H542.387V291.925H520.66V294.631ZM541.034 293.278V326.113H543.74V293.278H541.034ZM542.387 327.466H543.041V324.76H542.387V327.466ZM544.316 326.564C545.643 322.815 547.826 319.94 550.865 317.881L549.347 315.641C545.797 318.046 543.271 321.407 541.765 325.662L544.316 326.564ZM550.872 317.876C553.907 315.795 557.591 314.724 561.991 314.724V312.018C557.134 312.018 552.895 313.207 549.341 315.645L550.872 317.876ZM561.991 314.724C566.218 314.724 569.816 315.681 572.838 317.545L574.259 315.242C570.746 313.076 566.64 312.018 561.991 312.018V314.724ZM572.843 317.547C575.917 319.428 578.292 322.014 579.979 325.337L582.392 324.112C580.485 320.356 577.769 317.388 574.254 315.239L572.843 317.547ZM579.983 325.344C581.693 328.663 582.554 332.499 582.528 336.887L585.234 336.903C585.262 332.143 584.327 327.865 582.388 324.105L579.983 325.344ZM582.528 336.895V376.918H585.234V336.895H582.528ZM583.881 375.565H561.337V378.271H583.881V375.565ZM562.69 376.918V341.632H559.984V376.918H562.69ZM562.69 341.644C562.719 338.311 561.884 335.511 560.019 333.421L558 335.223C559.293 336.672 560.01 338.747 559.984 341.621L562.69 341.644ZM560.027 333.43C558.161 331.302 555.532 330.314 552.352 330.314V333.02C554.945 333.02 556.754 333.802 557.992 335.214L560.027 333.43ZM552.352 330.314C550.32 330.314 548.47 330.772 546.847 331.726L548.219 334.059C549.374 333.38 550.737 333.02 552.352 333.02V330.314ZM546.854 331.722C545.252 332.652 544.014 333.996 543.142 335.709L545.553 336.937C546.206 335.656 547.092 334.713 548.212 334.063L546.854 331.722ZM543.138 335.718C542.291 337.412 541.881 339.393 541.851 341.615L544.557 341.65C544.582 339.734 544.935 338.175 545.558 336.928L543.138 335.718ZM595.01 376.918H593.657V378.271H595.01V376.918ZM595.01 314.188V312.835H593.657V314.188H595.01ZM617.554 314.188H618.907V312.835H617.554V314.188ZM617.554 376.918V378.271H618.907V376.918H617.554ZM598.441 304.631L597.522 305.624L598.441 304.631ZM598.441 290.092L597.522 289.099V289.099L598.441 290.092ZM614.123 290.092L613.198 291.08L613.205 291.085L614.123 290.092ZM614.123 304.631L613.205 303.638L613.198 303.644L614.123 304.631ZM596.363 376.918V314.188H593.657V376.918H596.363ZM595.01 315.541H617.554V312.835H595.01V315.541ZM616.201 314.188V376.918H618.907V314.188H616.201ZM617.554 375.565H595.01V378.271H617.554V375.565ZM606.282 306.3C603.563 306.3 601.28 305.414 599.359 303.638L597.522 305.624C599.958 307.877 602.902 309.006 606.282 309.006V306.3ZM599.359 303.638C597.443 301.865 596.526 299.796 596.526 297.362H593.82C593.82 300.59 595.082 303.367 597.522 305.624L599.359 303.638ZM596.526 297.362C596.526 294.927 597.443 292.858 599.359 291.085L597.522 289.099C595.082 291.356 593.82 294.133 593.82 297.362H596.526ZM599.359 291.085C601.28 289.309 603.563 288.423 606.282 288.423V285.717C602.902 285.717 599.958 286.846 597.522 289.099L599.359 291.085ZM606.282 288.423C609.032 288.423 611.31 289.311 613.198 291.079L615.048 289.105C612.635 286.844 609.686 285.717 606.282 285.717V288.423ZM613.205 291.085C615.121 292.858 616.038 294.927 616.038 297.362H618.744C618.744 294.133 617.482 291.356 615.042 289.099L613.205 291.085ZM616.038 297.362C616.038 299.796 615.121 301.865 613.205 303.638L615.042 305.624C617.482 303.367 618.744 300.59 618.744 297.362H616.038ZM613.198 303.644C611.31 305.412 609.032 306.3 606.282 306.3V309.006C609.686 309.006 612.635 307.879 615.048 305.619L613.198 303.644ZM686.38 334.608V335.961H687.79L687.732 334.553L686.38 334.608ZM665.633 334.608L664.285 334.723L664.39 335.961H665.633V334.608ZM664.285 331.3L665.315 330.422L664.285 331.3ZM661.222 329.176L660.696 330.423L660.713 330.43L660.729 330.436L661.222 329.176ZM652.156 329.462L651.541 328.257L652.156 329.462ZM650.114 332.484L651.466 332.524L651.467 332.49L651.467 332.456L650.114 332.484ZM651.298 335.057L650.358 336.03L650.366 336.038L650.374 336.045L651.298 335.057ZM656.158 336.895L655.916 338.226L655.919 338.227L656.158 336.895ZM668.9 339.182L669.143 337.851L669.139 337.85L668.9 339.182ZM683.235 345.104L682.337 346.116L682.347 346.124L683.235 345.104ZM688.014 356.172L689.367 356.18L689.367 356.172L689.367 356.164L688.014 356.172ZM684.011 367.811L682.956 366.965L682.955 366.966L684.011 367.811ZM673.27 375.407L673.764 376.667L673.768 376.666L673.27 375.407ZM635.289 372.181L634.493 373.275L634.496 373.277L635.289 372.181ZM626.263 356.662V355.309H624.772L624.916 356.793L626.263 356.662ZM648.644 356.662L649.981 356.46L649.808 355.309H648.644V356.662ZM651.584 361.277L650.842 362.408L650.853 362.415L650.864 362.422L651.584 361.277ZM663.06 361.808L662.436 360.607L662.426 360.612L663.06 361.808ZM665.143 358.785L666.496 358.814L666.496 358.784L666.496 358.755L665.143 358.785ZM663.346 355.927L662.634 357.077L662.64 357.081L662.646 357.084L663.346 355.927ZM657.955 354.211L658.192 352.879L658.19 352.879L657.955 354.211ZM646.847 352.251L647.082 350.919L647.079 350.918L646.847 352.251ZM632.471 345.88L633.419 344.915L632.471 345.88ZM627.733 333.791L629.086 333.799L629.086 333.791L629.086 333.783L627.733 333.791ZM631.164 322.723L630.091 321.899L630.09 321.901L631.164 322.723ZM641.17 315.781L641.633 317.052L641.638 317.05L641.17 315.781ZM678.089 319.007L677.3 320.106L677.302 320.108L678.089 319.007ZM686.38 333.255H665.633V335.961H686.38V333.255ZM666.981 334.493C666.85 332.949 666.298 331.575 665.315 330.422L663.256 332.178C663.852 332.876 664.199 333.708 664.285 334.723L666.981 334.493ZM665.315 330.422C664.366 329.309 663.153 328.479 661.715 327.916L660.729 330.436C661.797 330.854 662.626 331.439 663.256 332.178L665.315 330.422ZM661.749 327.93C660.337 327.334 658.794 327.047 657.138 327.047V329.753C658.478 329.753 659.657 329.984 660.696 330.423L661.749 327.93ZM657.138 327.047C655.042 327.047 653.161 327.431 651.541 328.257L652.77 330.667C653.928 330.077 655.369 329.753 657.138 329.753V327.047ZM651.541 328.257C650.699 328.686 649.983 329.251 649.483 329.991C648.974 330.744 648.742 331.602 648.761 332.512L651.467 332.456C651.458 332.06 651.553 331.76 651.725 331.506C651.906 331.238 652.224 330.946 652.77 330.667L651.541 328.257ZM648.761 332.444C648.721 333.835 649.334 335.041 650.358 336.03L652.239 334.084C651.629 333.495 651.453 332.985 651.466 332.524L648.761 332.444ZM650.374 336.045C651.525 337.122 653.492 337.785 655.916 338.226L656.4 335.564C654.033 335.133 652.759 334.571 652.223 334.069L650.374 336.045ZM655.919 338.227L668.661 340.514L669.139 337.85L656.397 335.563L655.919 338.227ZM668.658 340.513C674.965 341.662 679.468 343.571 682.338 346.116L684.133 344.092C680.741 341.083 675.687 339.043 669.143 337.851L668.658 340.513ZM682.347 346.124C685.179 348.59 686.635 351.894 686.661 356.18L689.367 356.164C689.337 351.192 687.608 347.117 684.124 344.083L682.347 346.124ZM686.661 356.163C686.635 360.343 685.394 363.923 682.956 366.965L685.067 368.657C687.91 365.111 689.338 360.931 689.367 356.18L686.661 356.163ZM682.955 366.966C680.511 370.02 677.138 372.424 672.773 374.149L673.768 376.666C678.496 374.797 682.284 372.137 685.068 368.656L682.955 366.966ZM672.777 374.147C668.442 375.845 663.454 376.709 657.792 376.709V379.415C663.728 379.415 669.059 378.509 673.764 376.667L672.777 374.147ZM657.792 376.709C648.374 376.709 641.189 374.78 636.082 371.085L634.496 373.277C640.225 377.423 648.042 379.415 657.792 379.415V376.709ZM636.085 371.087C630.995 367.385 628.197 362.557 627.61 356.53L624.916 356.793C625.582 363.617 628.801 369.135 634.493 373.275L636.085 371.087ZM626.263 358.015H648.644V355.309H626.263V358.015ZM647.306 356.863C647.662 359.226 648.855 361.105 650.842 362.408L652.326 360.145C650.991 359.27 650.224 358.072 649.981 356.46L647.306 356.863ZM650.864 362.422C652.821 363.653 655.212 364.222 657.955 364.222V361.516C655.579 361.516 653.723 361.024 652.305 360.131L650.864 362.422ZM657.955 364.222C660.168 364.222 662.106 363.845 663.694 363.003L662.426 360.612C661.346 361.185 659.881 361.516 657.955 361.516V364.222ZM663.684 363.008C665.393 362.12 666.456 360.71 666.496 358.814L663.79 358.757C663.775 359.474 663.45 360.08 662.436 360.607L663.684 363.008ZM666.496 358.755C666.456 357.022 665.547 355.676 664.046 354.769L662.646 357.084C663.487 357.593 663.775 358.153 663.79 358.816L666.496 358.755ZM664.058 354.776C662.693 353.931 660.692 353.324 658.192 352.879L657.718 355.543C660.119 355.97 661.712 356.506 662.634 357.077L664.058 354.776ZM658.19 352.879L647.082 350.919L646.611 353.583L657.72 355.544L658.19 352.879ZM647.079 350.918C640.834 349.829 636.339 347.784 633.419 344.915L631.522 346.845C634.974 350.237 640.062 352.441 646.614 353.584L647.079 350.918ZM633.419 344.915C630.523 342.068 629.061 338.403 629.086 333.799L626.38 333.784C626.351 339.036 628.048 343.43 631.522 346.845L633.419 344.915ZM629.086 333.783C629.061 329.681 630.132 326.296 632.238 323.546L630.09 321.901C627.567 325.195 626.352 329.188 626.38 333.8L629.086 333.783ZM632.237 323.547C634.393 320.739 637.497 318.56 641.633 317.052L640.706 314.509C636.184 316.159 632.618 318.609 630.091 321.899L632.237 323.547ZM641.638 317.05C645.809 315.512 650.802 314.724 656.648 314.724V312.018C650.569 312.018 645.244 312.836 640.702 314.511L641.638 317.05ZM656.648 314.724C665.544 314.724 672.379 316.569 677.3 320.106L678.879 317.908C673.345 313.93 665.886 312.018 656.648 312.018V314.724ZM677.302 320.108C682.206 323.614 684.772 328.423 685.028 334.663L687.732 334.553C687.443 327.507 684.482 321.914 678.876 317.906L677.302 320.108Z" fill="white"/>
<path d="M441.379 268V184.359H500.189V202.656H464.086V217.031H496.595V235.328H464.086V268H441.379ZM526.021 244.149C522.726 244.149 519.718 243.346 516.995 241.74C514.272 240.106 512.094 237.928 510.461 235.205C508.854 232.483 508.051 229.474 508.051 226.18C508.051 222.858 508.854 219.849 510.461 217.154C512.094 214.431 514.272 212.267 516.995 210.66C519.718 209.027 522.726 208.21 526.021 208.21C529.342 208.21 532.351 209.027 535.046 210.66C537.769 212.267 539.934 214.431 541.54 217.154C543.174 219.849 543.99 222.858 543.99 226.18C543.99 229.474 543.174 232.483 541.54 235.205C539.934 237.928 537.769 240.106 535.046 241.74C532.351 243.346 529.342 244.149 526.021 244.149ZM624.701 253.134L624.864 226.343H627.805L642.997 205.269H668.318L642.834 238.105H636.463L624.701 253.134ZM604.444 268V184.359H626.988V268H604.444ZM643.161 268L628.785 243.169L643.488 227.16L668.972 268H643.161Z" fill="white"/>
<path d="M441.379 268H440.026V269.353H441.379V268ZM441.379 184.359V183.006H440.026V184.359H441.379ZM500.189 184.359H501.542V183.006H500.189V184.359ZM500.189 202.656V204.009H501.542V202.656H500.189ZM464.086 202.656V201.303H462.733V202.656H464.086ZM464.086 217.031H462.733V218.384H464.086V217.031ZM496.595 217.031H497.948V215.678H496.595V217.031ZM496.595 235.328V236.681H497.948V235.328H496.595ZM464.086 235.328V233.975H462.733V235.328H464.086ZM464.086 268V269.353H465.439V268H464.086ZM442.732 268V184.359H440.026V268H442.732ZM441.379 185.712H500.189V183.006H441.379V185.712ZM498.836 184.359V202.656H501.542V184.359H498.836ZM500.189 201.303H464.086V204.009H500.189V201.303ZM462.733 202.656V217.031H465.439V202.656H462.733ZM464.086 218.384H496.595V215.678H464.086V218.384ZM495.242 217.031V235.328H497.948V217.031H495.242ZM496.595 233.975H464.086V236.681H496.595V233.975ZM462.733 235.328V268H465.439V235.328H462.733ZM464.086 266.647H441.379V269.353H464.086V266.647ZM516.995 241.74L516.299 242.9L516.307 242.905L516.995 241.74ZM510.461 235.205L509.295 235.893L509.3 235.901L510.461 235.205ZM510.461 217.154L509.3 216.458L509.298 216.461L510.461 217.154ZM516.995 210.66L517.683 211.826L517.691 211.82L516.995 210.66ZM535.046 210.66L534.345 211.817L534.352 211.821L534.359 211.826L535.046 210.66ZM541.54 217.154L540.375 217.841L540.379 217.848L540.383 217.855L541.54 217.154ZM541.54 235.205L540.38 234.509L540.375 234.518L541.54 235.205ZM535.046 241.74L535.739 242.902L535.742 242.9L535.046 241.74ZM526.021 242.796C522.957 242.796 520.188 242.053 517.682 240.574L516.307 242.905C519.247 244.64 522.495 245.502 526.021 245.502V242.796ZM517.691 240.58C515.159 239.06 513.14 237.041 511.621 234.509L509.3 235.901C511.048 238.814 513.386 241.152 516.299 242.9L517.691 240.58ZM511.626 234.518C510.148 232.012 509.404 229.243 509.404 226.18H506.698C506.698 229.705 507.561 232.953 509.295 235.893L511.626 234.518ZM509.404 226.18C509.404 223.087 510.149 220.32 511.623 217.847L509.298 216.461C507.56 219.379 506.698 222.629 506.698 226.18H509.404ZM511.621 217.85C513.139 215.32 515.155 213.317 517.682 211.826L516.307 209.495C513.39 211.216 511.049 213.543 509.3 216.458L511.621 217.85ZM517.691 211.82C520.195 210.318 522.962 209.563 526.021 209.563V206.857C522.491 206.857 519.24 207.735 516.299 209.5L517.691 211.82ZM526.021 209.563C529.109 209.563 531.873 210.319 534.345 211.817L535.748 209.503C532.829 207.734 529.576 206.857 526.021 206.857V209.563ZM534.359 211.826C536.884 213.316 538.885 215.316 540.375 217.841L542.705 216.466C540.983 213.547 538.654 211.218 535.734 209.495L534.359 211.826ZM540.383 217.855C541.881 220.328 542.637 223.091 542.637 226.18H545.343C545.343 222.625 544.466 219.371 542.697 216.453L540.383 217.855ZM542.637 226.18C542.637 229.238 541.882 232.005 540.38 234.509L542.7 235.901C544.465 232.96 545.343 229.71 545.343 226.18H542.637ZM540.375 234.518C538.883 237.045 536.88 239.061 534.35 240.58L535.742 242.9C538.658 241.151 540.984 238.811 542.705 235.893L540.375 234.518ZM534.354 240.577C531.88 242.052 529.113 242.796 526.021 242.796V245.502C529.571 245.502 532.822 244.641 535.739 242.902L534.354 240.577ZM554.578 268H553.225V269.353H554.578V268ZM554.578 205.269V203.916H553.225V205.269H554.578ZM576.469 205.269H577.822V203.916H576.469V205.269ZM576.469 217.195H575.116V218.548H576.469V217.195ZM577.122 217.195V218.548H578.169L578.432 217.534L577.122 217.195ZM582.554 207.516L581.699 206.467L581.693 206.471L582.554 207.516ZM594.234 204.698L594.006 206.031L594.027 206.035L594.048 206.038L594.234 204.698ZM597.052 205.31H598.405V204.306L597.444 204.015L597.052 205.31ZM597.052 224.546L596.615 225.826L598.405 226.438V224.546H597.052ZM592.927 223.688L593.084 222.344L592.927 223.688ZM582.758 224.914L583.421 226.093L583.427 226.089L582.758 224.914ZM578.633 229.079L579.809 229.749L579.813 229.741L578.633 229.079ZM577.122 268V269.353H578.475V268H577.122ZM555.931 268V205.269H553.225V268H555.931ZM554.578 206.622H576.469V203.916H554.578V206.622ZM575.116 205.269V217.195H577.822V205.269H575.116ZM576.469 218.548H577.122V215.842H576.469V218.548ZM578.432 217.534C579.533 213.288 581.232 210.358 583.414 208.56L581.693 206.471C578.92 208.757 576.998 212.28 575.812 216.855L578.432 217.534ZM583.409 208.564C585.663 206.727 588.285 205.806 591.334 205.806V203.1C587.686 203.1 584.455 204.22 581.699 206.467L583.409 208.564ZM591.334 205.806C592.239 205.806 593.129 205.881 594.006 206.031L594.463 203.364C593.433 203.188 592.39 203.1 591.334 203.1V205.806ZM594.048 206.038C594.962 206.165 595.832 206.354 596.66 206.605L597.444 204.015C596.475 203.722 595.467 203.503 594.42 203.357L594.048 206.038ZM595.699 205.31V224.546H598.405V205.31H595.699ZM597.489 223.266C596.254 222.844 594.779 222.542 593.084 222.344L592.77 225.032C594.343 225.216 595.617 225.486 596.615 225.826L597.489 223.266ZM593.084 222.344C591.417 222.15 589.96 222.049 588.721 222.049V224.755C589.823 224.755 591.17 224.845 592.77 225.032L593.084 222.344ZM588.721 222.049C586.301 222.049 584.079 222.605 582.089 223.738L583.427 226.089C584.976 225.208 586.73 224.755 588.721 224.755V222.049ZM582.095 223.734C580.129 224.84 578.578 226.411 577.453 228.418L579.813 229.741C580.703 228.154 581.902 226.947 583.421 226.093L582.095 223.734ZM577.457 228.41C576.315 230.417 575.769 232.739 575.769 235.328H578.475C578.475 233.125 578.937 231.281 579.809 229.749L577.457 228.41ZM575.769 235.328V268H578.475V235.328H575.769ZM577.122 266.647H554.578V269.353H577.122V266.647ZM624.701 253.134L623.348 253.126L623.324 257.089L625.766 253.968L624.701 253.134ZM624.864 226.343V224.99H623.52L623.511 226.335L624.864 226.343ZM627.805 226.343V227.696H628.497L628.902 227.134L627.805 226.343ZM642.997 205.269V203.916H642.305L641.9 204.478L642.997 205.269ZM668.318 205.269L669.387 206.099L671.081 203.916H668.318V205.269ZM642.834 238.105V239.458H643.497L643.903 238.934L642.834 238.105ZM636.463 238.105V236.752H635.804L635.397 237.271L636.463 238.105ZM604.444 268H603.091V269.353H604.444V268ZM604.444 184.359V183.006H603.091V184.359H604.444ZM626.988 184.359H628.341V183.006H626.988V184.359ZM626.988 268V269.353H628.341V268H626.988ZM643.161 268L641.99 268.678L642.381 269.353H643.161V268ZM628.785 243.169L627.788 242.254L627.116 242.986L627.614 243.847L628.785 243.169ZM643.488 227.16L644.635 226.443L643.694 224.935L642.491 226.245L643.488 227.16ZM668.972 268V269.353H671.411L670.12 267.284L668.972 268ZM626.054 253.142L626.217 226.351L623.511 226.335L623.348 253.126L626.054 253.142ZM624.864 227.696H627.805V224.99H624.864V227.696ZM628.902 227.134L644.095 206.061L641.9 204.478L626.707 225.552L628.902 227.134ZM642.997 206.622H668.318V203.916H642.997V206.622ZM667.25 204.44L641.765 237.275L643.903 238.934L669.387 206.099L667.25 204.44ZM642.834 236.752H636.463V239.458H642.834V236.752ZM635.397 237.271L623.635 252.3L625.766 253.968L637.528 238.939L635.397 237.271ZM605.797 268V184.359H603.091V268H605.797ZM604.444 185.712H626.988V183.006H604.444V185.712ZM625.635 184.359V268H628.341V184.359H625.635ZM626.988 266.647H604.444V269.353H626.988V266.647ZM644.332 267.322L629.956 242.491L627.614 243.847L641.99 268.678L644.332 267.322ZM629.782 244.084L644.484 228.075L642.491 226.245L627.788 242.254L629.782 244.084ZM642.34 227.876L667.824 268.716L670.12 267.284L644.635 226.443L642.34 227.876ZM668.972 266.647H643.161V269.353H668.972V266.647Z" fill="white"/>
<g filter="url(#filter1_d_1204_347)">
<path d="M332.708 306.422H288.905V274.909C288.905 266.552 292.226 258.536 298.135 252.626C304.045 246.717 312.06 243.397 320.418 243.397H332.708C335.186 250.408 340.063 256.318 346.477 260.081C352.891 263.844 360.429 265.219 367.759 263.962C375.088 262.705 381.737 258.897 386.531 253.211C391.324 247.526 393.953 240.329 393.953 232.892C393.953 225.456 391.324 218.259 386.531 212.573C381.737 206.888 375.088 203.08 367.759 201.823C360.429 200.566 352.891 201.94 346.477 205.704C340.063 209.467 335.186 215.377 332.708 222.388H320.418C306.489 222.388 293.13 227.922 283.28 237.771C273.43 247.621 267.897 260.98 267.897 274.909V306.422H245.103C242.625 299.411 237.748 293.501 231.334 289.738C224.92 285.974 217.382 284.6 210.052 285.857C202.723 287.114 196.074 290.922 191.28 296.607C186.487 302.293 183.858 309.49 183.858 316.926C183.858 324.363 186.487 331.56 191.28 337.246C196.074 342.931 202.723 346.739 210.052 347.996C217.382 349.253 224.92 347.878 231.334 344.115C237.748 340.352 242.625 334.442 245.103 327.431H332.708C335.186 334.442 340.063 340.352 346.477 344.115C352.891 347.878 360.429 349.253 367.759 347.996C375.088 346.739 381.737 342.931 386.531 337.246C391.324 331.56 393.953 324.363 393.953 316.926C393.953 309.49 391.324 302.293 386.531 296.607C381.737 290.922 375.088 287.114 367.759 285.857C360.429 284.6 352.891 285.974 346.477 289.738C340.063 293.501 335.186 299.411 332.708 306.422V306.422ZM204.871 316.926C204.871 315.547 205.143 314.181 205.67 312.906C206.198 311.631 206.972 310.473 207.947 309.498C208.923 308.522 210.081 307.748 211.355 307.22C212.63 306.692 213.996 306.421 215.376 306.421C216.755 306.421 218.121 306.692 219.396 307.22C220.67 307.748 221.828 308.522 222.804 309.498C223.779 310.473 224.553 311.631 225.081 312.906C225.609 314.181 225.88 315.547 225.88 316.926C225.879 319.712 224.773 322.383 222.803 324.353C220.833 326.323 218.161 327.429 215.376 327.429C212.59 327.429 209.918 326.323 207.949 324.353C205.979 322.383 204.872 319.712 204.871 316.926V316.926ZM351.931 232.892C351.931 231.513 352.202 230.147 352.73 228.872C353.258 227.597 354.032 226.439 355.007 225.464C355.982 224.488 357.141 223.714 358.415 223.186C359.69 222.658 361.056 222.386 362.435 222.386C363.815 222.386 365.181 222.658 366.455 223.186C367.73 223.714 368.888 224.488 369.863 225.464C370.839 226.439 371.613 227.597 372.14 228.872C372.668 230.147 372.94 231.513 372.939 232.892C372.939 235.678 371.832 238.349 369.862 240.319C367.892 242.289 365.221 243.395 362.435 243.395C359.65 243.395 356.978 242.289 355.008 240.319C353.038 238.349 351.931 235.678 351.931 232.892ZM351.931 316.926C351.931 315.547 352.202 314.181 352.73 312.906C353.258 311.631 354.032 310.473 355.007 309.498C355.982 308.522 357.141 307.748 358.415 307.22C359.69 306.692 361.056 306.421 362.435 306.421C363.815 306.421 365.181 306.692 366.455 307.22C367.73 307.748 368.888 308.522 369.863 309.498C370.839 310.473 371.613 311.631 372.14 312.906C372.668 314.181 372.94 315.547 372.939 316.926C372.939 319.712 371.832 322.383 369.862 324.353C367.892 326.323 365.221 327.429 362.435 327.429C359.65 327.429 356.978 326.323 355.008 324.353C353.038 322.383 351.931 319.712 351.931 316.926Z" fill="url(#paint0_linear_1204_347)"/>
<path d="M291.515 303.812H330.916C333.758 296.984 338.749 291.246 345.156 287.487C352.101 283.412 360.264 281.923 368.2 283.284C376.136 284.646 383.336 288.769 388.526 294.925C393.716 301.081 396.563 308.874 396.563 316.926C396.563 324.979 393.716 332.772 388.526 338.928C383.336 345.084 376.136 349.207 368.2 350.568C360.264 351.929 352.101 350.441 345.156 346.366C338.749 342.607 333.758 336.869 330.916 330.041H246.894C244.053 336.869 239.062 342.607 232.654 346.366C225.709 350.441 217.547 351.929 209.611 350.568C201.675 349.207 194.475 345.084 189.285 338.928C184.095 332.772 181.248 324.979 181.248 316.926C181.248 308.874 184.095 301.081 189.285 294.925C194.475 288.769 201.675 284.646 209.611 283.284C217.547 281.923 225.709 283.412 232.654 287.487C239.062 291.246 244.053 296.984 246.894 303.812H265.287V274.909C265.287 260.288 271.095 246.265 281.435 235.926C291.774 225.587 305.797 219.778 320.418 219.778H330.916C333.758 212.95 338.749 207.212 345.156 203.453C352.101 199.378 360.264 197.889 368.2 199.25C376.136 200.612 383.336 204.735 388.526 210.891C393.716 217.047 396.563 224.84 396.563 232.892C396.563 240.945 393.716 248.737 388.526 254.894C383.336 261.05 376.136 265.173 368.2 266.534C360.264 267.895 352.101 266.407 345.156 262.332C338.749 258.573 333.758 252.835 330.916 246.006H320.418C312.753 246.006 305.401 249.052 299.981 254.472C294.56 259.892 291.515 267.244 291.515 274.909V303.812ZM208.082 313.905C207.685 314.862 207.481 315.889 207.481 316.926C207.482 319.019 208.313 321.027 209.794 322.507C211.274 323.988 213.282 324.819 215.376 324.819C217.469 324.819 219.477 323.988 220.957 322.507C222.438 321.027 223.27 319.019 223.27 316.926C223.27 315.889 223.066 314.862 222.669 313.905C222.273 312.947 221.691 312.076 220.958 311.343C220.225 310.61 219.355 310.028 218.397 309.631C217.439 309.235 216.412 309.03 215.376 309.03C214.339 309.03 213.312 309.235 212.354 309.631C211.396 310.028 210.526 310.61 209.793 311.343C209.06 312.076 208.478 312.947 208.082 313.905ZM355.141 229.87C354.745 230.828 354.541 231.855 354.541 232.892C354.541 234.985 355.373 236.993 356.853 238.473C358.334 239.954 360.342 240.785 362.435 240.785C364.529 240.785 366.537 239.954 368.017 238.473C369.497 236.993 370.329 234.985 370.33 232.892C370.33 231.855 370.126 230.828 369.729 229.87C369.332 228.913 368.751 228.042 368.018 227.309C367.285 226.576 366.414 225.994 365.457 225.597C364.499 225.201 363.472 224.996 362.435 224.996C361.398 224.996 360.372 225.201 359.414 225.597C358.456 225.994 357.586 226.576 356.853 227.309C356.12 228.042 355.538 228.913 355.141 229.87ZM355.141 313.905C354.745 314.862 354.541 315.889 354.541 316.926C354.541 319.019 355.373 321.027 356.853 322.507C358.334 323.988 360.342 324.819 362.435 324.819C364.529 324.819 366.537 323.988 368.017 322.507C369.497 321.027 370.329 319.019 370.33 316.926C370.33 315.889 370.126 314.862 369.729 313.905C369.332 312.947 368.751 312.076 368.018 311.343C367.285 310.61 366.414 310.028 365.457 309.631C364.499 309.235 363.472 309.03 362.435 309.03C361.398 309.03 360.372 309.235 359.414 309.631C358.456 310.028 357.586 310.61 356.853 311.343C356.12 312.076 355.538 312.947 355.141 313.905Z" stroke="white" stroke-width="5.21977"/>
</g>
<g opacity="0.3" filter="url(#filter2_f_1204_347)">
<rect x="200" y="200" width="464" height="185" fill="url(#paint1_linear_1204_347)"/>
</g>
<defs>
<filter id="filter0_d_1204_347" x="166.031" y="430.2" width="539.297" height="39.5752" filterUnits="userSpaceOnUse" color-interpolation-filters="sRGB">
<feFlood flood-opacity="0" result="BackgroundImageFix"/>
<feColorMatrix in="SourceAlpha" type="matrix" values="0 0 0 0 0 0 0 0 0 0 0 0 0 0 0 0 0 0 127 0" result="hardAlpha"/>
<feOffset dx="3.72881" dy="3.72881"/>
<feGaussianBlur stdDeviation="2.33051"/>
<feComposite in2="hardAlpha" operator="out"/>
<feColorMatrix type="matrix" values="0 0 0 0 1 0 0 0 0 1 0 0 0 0 1 0 0 0 0.3 0"/>
<feBlend mode="normal" in2="BackgroundImageFix" result="effect1_dropShadow_1204_347"/>
<feBlend mode="normal" in="SourceGraphic" in2="effect1_dropShadow_1204_347" result="shape"/>
</filter>
<filter id="filter1_d_1204_347" x="141.687" y="161.159" width="294.439" height="231.424" filterUnits="userSpaceOnUse" color-interpolation-filters="sRGB">
<feFlood flood-opacity="0" result="BackgroundImageFix"/>
<feColorMatrix in="SourceAlpha" type="matrix" values="0 0 0 0 0 0 0 0 0 0 0 0 0 0 0 0 0 0 127 0" result="hardAlpha"/>
<feOffset dy="1.96108"/>
<feGaussianBlur stdDeviation="18.4758"/>
<feComposite in2="hardAlpha" operator="out"/>
<feColorMatrix type="matrix" values="0 0 0 0 1 0 0 0 0 1 0 0 0 0 1 0 0 0 0.2 0"/>
<feBlend mode="normal" in2="BackgroundImageFix" result="effect1_dropShadow_1204_347"/>
<feBlend mode="normal" in="SourceGraphic" in2="effect1_dropShadow_1204_347" result="shape"/>
</filter>
<filter id="filter2_f_1204_347" x="0" y="0" width="864" height="585" filterUnits="userSpaceOnUse" color-interpolation-filters="sRGB">
<feFlood flood-opacity="0" result="BackgroundImageFix"/>
<feBlend mode="normal" in="SourceGraphic" in2="BackgroundImageFix" result="shape"/>
<feGaussianBlur stdDeviation="100" result="effect1_foregroundBlur_1204_347"/>
</filter>
<linearGradient id="paint0_linear_1204_347" x1="298.91" y1="347.512" x2="296.993" y2="196.692" gradientUnits="userSpaceOnUse">
<stop stop-color="#D8D479"/>
<stop offset="0.497917" stop-color="#72CDF3"/>
<stop offset="1" stop-color="#8E97FF"/>
</linearGradient>
<linearGradient id="paint1_linear_1204_347" x1="202.959" y1="283.69" x2="677.847" y2="305.314" gradientUnits="userSpaceOnUse">
<stop stop-color="#D8D479"/>
<stop offset="0.497917" stop-color="#72CDF3"/>
<stop offset="1" stop-color="#8E97FF"/>
</linearGradient>
</defs>
</svg>
