<svg width="121" height="117" viewBox="0 0 121 117" fill="none" xmlns="http://www.w3.org/2000/svg">
<g filter="url(#filter0_d_1091_350)">
<path d="M68.296 64.2649H60.2632V58.486C60.2632 56.9533 60.8721 55.4834 61.9558 54.3996C63.0396 53.3159 64.5095 52.707 66.0422 52.707H68.296C68.7504 53.9928 69.6448 55.0766 70.821 55.7667C71.9972 56.4569 73.3796 56.7089 74.7237 56.4784C76.0678 56.2479 77.2871 55.5496 78.1662 54.5069C79.0452 53.4643 79.5273 52.1445 79.5273 50.7807C79.5273 49.417 79.0452 48.0971 78.1662 47.0545C77.2871 46.0118 76.0678 45.3135 74.7237 45.083C73.3796 44.8525 71.9972 45.1046 70.821 45.7947C69.6448 46.4848 68.7504 47.5686 68.296 48.8544H66.0422C63.4877 48.8544 61.0379 49.8691 59.2316 51.6754C57.4253 53.4817 56.4106 55.9315 56.4106 58.486V64.2649H52.2304C51.776 62.9791 50.8816 61.8954 49.7054 61.2053C48.5292 60.5151 47.1468 60.263 45.8027 60.4936C44.4586 60.7241 43.2393 61.4224 42.3602 62.465C41.4812 63.5077 40.9991 64.8275 40.9991 66.1913C40.9991 67.555 41.4812 68.8749 42.3602 69.9175C43.2393 70.9601 44.4586 71.6584 45.8027 71.889C47.1468 72.1195 48.5292 71.8674 49.7054 71.1773C50.8816 70.4871 51.776 69.4034 52.2304 68.1176H68.296C68.7504 69.4034 69.6448 70.4871 70.821 71.1773C71.9972 71.8674 73.3796 72.1195 74.7237 71.889C76.0678 71.6584 77.2871 70.9601 78.1662 69.9175C79.0452 68.8749 79.5273 67.555 79.5273 66.1913C79.5273 64.8275 79.0452 63.5077 78.1662 62.465C77.2871 61.4224 76.0678 60.7241 74.7237 60.4936C73.3796 60.263 71.9972 60.5151 70.821 61.2053C69.6448 61.8954 68.7504 62.9791 68.296 64.2649V64.2649ZM44.8526 66.1913C44.8526 65.9383 44.9024 65.6878 44.9992 65.454C45.096 65.2203 45.2379 65.0079 45.4167 64.829C45.5956 64.6501 45.808 64.5081 46.0417 64.4113C46.2754 64.3145 46.526 64.2647 46.779 64.2647C47.0319 64.2647 47.2825 64.3145 47.5162 64.4113C47.7499 64.5081 47.9623 64.6501 48.1412 64.829C48.3201 65.0079 48.4619 65.2203 48.5587 65.454C48.6555 65.6878 48.7053 65.9383 48.7053 66.1913C48.7052 66.7021 48.5022 67.192 48.141 67.5532C47.7797 67.9144 47.2898 68.1173 46.779 68.1173C46.2681 68.1173 45.7782 67.9144 45.4169 67.5532C45.0557 67.192 44.8527 66.7021 44.8526 66.1913V66.1913ZM71.8211 50.7807C71.8211 50.5277 71.8709 50.2772 71.9677 50.0434C72.0645 49.8097 72.2063 49.5973 72.3852 49.4184C72.5641 49.2395 72.7765 49.0976 73.0102 49.0008C73.2439 48.9039 73.4945 48.8541 73.7474 48.8541C74.0004 48.8541 74.251 48.9039 74.4847 49.0008C74.7184 49.0976 74.9308 49.2395 75.1097 49.4184C75.2885 49.5973 75.4304 49.8097 75.5272 50.0434C75.624 50.2772 75.6738 50.5277 75.6738 50.7807C75.6737 51.2915 75.4707 51.7814 75.1095 52.1426C74.7482 52.5038 74.2583 52.7067 73.7474 52.7067C73.2366 52.7067 72.7467 52.5038 72.3854 52.1426C72.0242 51.7814 71.8212 51.2915 71.8211 50.7807ZM71.8211 66.1913C71.8211 65.9383 71.8709 65.6878 71.9677 65.454C72.0645 65.2203 72.2063 65.0079 72.3852 64.829C72.5641 64.6501 72.7765 64.5081 73.0102 64.4113C73.2439 64.3145 73.4945 64.2647 73.7474 64.2647C74.0004 64.2647 74.251 64.3145 74.4847 64.4113C74.7184 64.5081 74.9308 64.6501 75.1097 64.829C75.2885 65.0079 75.4304 65.2203 75.5272 65.454C75.624 65.6878 75.6738 65.9383 75.6738 66.1913C75.6737 66.7021 75.4707 67.192 75.1095 67.5532C74.7482 67.9144 74.2583 68.1173 73.7474 68.1173C73.2366 68.1173 72.7467 67.9144 72.3854 67.5532C72.0242 67.192 71.8212 66.7021 71.8211 66.1913Z" fill="url(#paint0_linear_1091_350)"/>
<path d="M60.7418 63.7863H67.9674C68.4884 62.5342 69.4037 61.4819 70.5788 60.7925C71.8524 60.0452 73.3492 59.7722 74.8046 60.0219C76.26 60.2715 77.5803 61.0276 78.5321 62.1565C79.4839 63.2855 80.006 64.7146 80.006 66.1913C80.006 67.6679 79.4839 69.097 78.5321 70.226C77.5803 71.355 76.26 72.1111 74.8046 72.3607C73.3492 72.6103 71.8524 72.3374 70.5788 71.5901C69.4037 70.9006 68.4884 69.8484 67.9674 68.5962H52.559C52.038 69.8484 51.1227 70.9006 49.9476 71.5901C48.674 72.3374 47.1772 72.6103 45.7218 72.3607C44.2664 72.1111 42.9461 71.355 41.9943 70.226C41.0425 69.097 40.5204 67.6679 40.5204 66.1913C40.5204 64.7146 41.0425 63.2855 41.9943 62.1565C42.9461 61.0276 44.2664 60.2715 45.7218 60.0219C47.1772 59.7722 48.674 60.0452 49.9476 60.7925C51.1227 61.4819 52.038 62.5342 52.559 63.7863H55.9319V58.486C55.9319 55.8046 56.9971 53.233 58.8932 51.337C60.7892 49.441 63.3608 48.3758 66.0422 48.3758H67.9674C68.4884 47.1236 69.4037 46.0714 70.5788 45.3819C71.8524 44.6346 73.3492 44.3617 74.8046 44.6113C76.26 44.8609 77.5803 45.617 78.5321 46.746C79.4839 47.8749 80.006 49.3041 80.006 50.7807C80.006 52.2574 79.4839 53.6865 78.5321 54.8154C77.5803 55.9444 76.26 56.7005 74.8046 56.9501C73.3492 57.1997 71.8524 56.9268 70.5788 56.1795C69.4037 55.4901 68.4884 54.4378 67.9674 53.1856H66.0422C64.6364 53.1856 63.2883 53.7441 62.2942 54.7381C61.3002 55.7321 60.7418 57.0802 60.7418 58.486V63.7863ZM45.4414 65.6371C45.3686 65.8128 45.3312 66.0011 45.3312 66.1912C45.3313 66.5751 45.4839 66.9433 45.7554 67.2147C46.0268 67.4862 46.395 67.6387 46.779 67.6387C47.1629 67.6387 47.5311 67.4862 47.8026 67.2147C48.0741 66.9433 48.2266 66.5751 48.2267 66.1912C48.2267 66.0011 48.1893 65.8128 48.1165 65.6371C48.0438 65.4614 47.9372 65.3018 47.8027 65.1674C47.6683 65.0329 47.5087 64.9263 47.333 64.8535C47.1574 64.7807 46.9691 64.7433 46.779 64.7433C46.5888 64.7433 46.4006 64.7807 46.2249 64.8535C46.0492 64.9263 45.8896 65.0329 45.7552 65.1674C45.6208 65.3018 45.5141 65.4614 45.4414 65.6371ZM72.4099 50.2266C72.3371 50.4022 72.2997 50.5905 72.2997 50.7806C72.2998 51.1646 72.4523 51.5327 72.7238 51.8042C72.9953 52.0756 73.3635 52.2281 73.7474 52.2281C74.1314 52.2281 74.4996 52.0756 74.771 51.8042C75.0425 51.5327 75.1951 51.1646 75.1951 50.7806C75.1952 50.5905 75.1578 50.4022 75.085 50.2266C75.0123 50.0509 74.9056 49.8913 74.7712 49.7568C74.6368 49.6224 74.4772 49.5157 74.3015 49.4429C74.1259 49.3702 73.9376 49.3327 73.7474 49.3327C73.5573 49.3327 73.369 49.3702 73.1934 49.4429C73.0177 49.5157 72.8581 49.6224 72.7237 49.7568C72.5892 49.8913 72.4826 50.0509 72.4099 50.2266ZM72.4099 65.6371C72.3371 65.8128 72.2997 66.0011 72.2997 66.1912C72.2998 66.5751 72.4523 66.9433 72.7238 67.2147C72.9953 67.4862 73.3635 67.6387 73.7474 67.6387C74.1314 67.6387 74.4996 67.4862 74.771 67.2147C75.0425 66.9433 75.1951 66.5751 75.1951 66.1912C75.1952 66.0011 75.1578 65.8128 75.085 65.6371C75.0123 65.4614 74.9056 65.3018 74.7712 65.1674C74.6368 65.0329 74.4772 64.9263 74.3015 64.8535C74.1258 64.7807 73.9376 64.7433 73.7474 64.7433C73.5573 64.7433 73.369 64.7807 73.1934 64.8535C73.0177 64.9263 72.8581 65.0329 72.7237 65.1674C72.5892 65.3018 72.4826 65.4614 72.4099 65.6371Z" stroke="white" stroke-width="0.957226"/>
</g>
<g opacity="0.3" filter="url(#filter1_f_1091_350)">
<path d="M37 37H84V80H37V37Z" fill="url(#paint1_linear_1091_350)"/>
<path d="M37 37H84V80H37V37Z" fill="url(#paint2_linear_1091_350)"/>
<path d="M37 37H84V80H37V37Z" fill="url(#paint3_linear_1091_350)"/>
<path d="M37 37H84V80H37V37Z" fill="url(#paint4_linear_1091_350)"/>
<path d="M37 37H84V80H37V37Z" fill="url(#paint5_linear_1091_350)"/>
<path d="M37 37H84V80H37V37Z" fill="url(#paint6_linear_1091_350)"/>
</g>
<defs>
<filter id="filter0_d_1091_350" x="33.2646" y="37.6257" width="53.9961" height="42.4395" filterUnits="userSpaceOnUse" color-interpolation-filters="sRGB">
<feFlood flood-opacity="0" result="BackgroundImageFix"/>
<feColorMatrix in="SourceAlpha" type="matrix" values="0 0 0 0 0 0 0 0 0 0 0 0 0 0 0 0 0 0 127 0" result="hardAlpha"/>
<feOffset dy="0.359631"/>
<feGaussianBlur stdDeviation="3.38819"/>
<feComposite in2="hardAlpha" operator="out"/>
<feColorMatrix type="matrix" values="0 0 0 0 1 0 0 0 0 1 0 0 0 0 1 0 0 0 0.2 0"/>
<feBlend mode="normal" in2="BackgroundImageFix" result="effect1_dropShadow_1091_350"/>
<feBlend mode="normal" in="SourceGraphic" in2="effect1_dropShadow_1091_350" result="shape"/>
</filter>
<filter id="filter1_f_1091_350" x="0.323055" y="0.323055" width="120.354" height="116.354" filterUnits="userSpaceOnUse" color-interpolation-filters="sRGB">
<feFlood flood-opacity="0" result="BackgroundImageFix"/>
<feBlend mode="normal" in="SourceGraphic" in2="BackgroundImageFix" result="shape"/>
<feGaussianBlur stdDeviation="18.3385" result="effect1_foregroundBlur_1091_350"/>
</filter>
<linearGradient id="paint0_linear_1091_350" x1="62.0979" y1="71.8001" x2="61.7464" y2="44.1421" gradientUnits="userSpaceOnUse">
<stop stop-color="#D8D479"/>
<stop offset="0.497917" stop-color="#72CDF3"/>
<stop offset="1" stop-color="#8E97FF"/>
</linearGradient>
<linearGradient id="paint1_linear_1091_350" x1="37.2998" y1="56.4524" x2="85.4834" y2="57.4085" gradientUnits="userSpaceOnUse">
<stop stop-color="#D8D479"/>
<stop offset="0.497917" stop-color="#72CDF3"/>
<stop offset="1" stop-color="#8E97FF"/>
</linearGradient>
<linearGradient id="paint2_linear_1091_350" x1="37.2998" y1="56.4524" x2="85.4834" y2="57.4085" gradientUnits="userSpaceOnUse">
<stop stop-color="#D8D479"/>
<stop offset="0.497917" stop-color="#72CDF3"/>
<stop offset="1" stop-color="#8E97FF"/>
</linearGradient>
<linearGradient id="paint3_linear_1091_350" x1="37.2998" y1="56.4524" x2="85.4834" y2="57.4085" gradientUnits="userSpaceOnUse">
<stop stop-color="#D8D479"/>
<stop offset="0.497917" stop-color="#72CDF3"/>
<stop offset="1" stop-color="#8E97FF"/>
</linearGradient>
<linearGradient id="paint4_linear_1091_350" x1="37.2998" y1="56.4524" x2="85.4834" y2="57.4085" gradientUnits="userSpaceOnUse">
<stop stop-color="#D8D479"/>
<stop offset="0.497917" stop-color="#72CDF3"/>
<stop offset="1" stop-color="#8E97FF"/>
</linearGradient>
<linearGradient id="paint5_linear_1091_350" x1="37.2998" y1="56.4524" x2="85.4834" y2="57.4085" gradientUnits="userSpaceOnUse">
<stop stop-color="#D8D479"/>
<stop offset="0.497917" stop-color="#72CDF3"/>
<stop offset="1" stop-color="#8E97FF"/>
</linearGradient>
<linearGradient id="paint6_linear_1091_350" x1="37.2998" y1="56.4524" x2="85.4834" y2="57.4085" gradientUnits="userSpaceOnUse">
<stop stop-color="#D8D479"/>
<stop offset="0.497917" stop-color="#72CDF3"/>
<stop offset="1" stop-color="#8E97FF"/>
</linearGradient>
</defs>
</svg>
