<svg width="158" height="103" viewBox="0 0 158 103" fill="none" xmlns="http://www.w3.org/2000/svg">
<path d="M79.8055 52.9909V49.6357H93.1368V52.9909H88.5233V64.9741H84.4191V52.9909H79.8055Z" fill="white"/>
<path d="M79.8055 52.9909H79.5574V53.2391H79.8055V52.9909ZM79.8055 49.6357V49.3875H79.5574V49.6357H79.8055ZM93.1368 49.6357H93.3849V49.3875H93.1368V49.6357ZM93.1368 52.9909V53.2391H93.3849V52.9909H93.1368ZM88.5233 52.9909V52.7428H88.2752V52.9909H88.5233ZM88.5233 64.9741V65.2222H88.7714V64.9741H88.5233ZM84.4191 64.9741H84.1709V65.2222H84.4191V64.9741ZM84.4191 52.9909H84.6672V52.7428H84.4191V52.9909ZM80.0537 52.9909V49.6357H79.5574V52.9909H80.0537ZM79.8055 49.8838H93.1368V49.3875H79.8055V49.8838ZM92.8887 49.6357V52.9909H93.3849V49.6357H92.8887ZM93.1368 52.7428H88.5233V53.2391H93.1368V52.7428ZM88.2752 52.9909V64.9741H88.7714V52.9909H88.2752ZM88.5233 64.726H84.4191V65.2222H88.5233V64.726ZM84.6672 64.9741V52.9909H84.1709V64.9741H84.6672ZM84.4191 52.7428H79.8055V53.2391H84.4191V52.7428ZM98.8981 58.5032L98.65 58.4999V58.5032H98.8981ZM98.8981 64.9741V65.2222H99.1462V64.9741H98.8981ZM94.7639 64.9741H94.5158V65.2222H94.7639V64.9741ZM94.7639 49.6357V49.3875H94.5158V49.6357H94.7639ZM98.7483 49.6357H98.9964V49.3875H98.7483V49.6357ZM98.7483 55.6572H98.5002V55.9053H98.7483V55.6572ZM98.8681 55.6572V55.9053H99.0436L99.1021 55.74L98.8681 55.6572ZM100.164 53.9421L100.303 54.1475L100.304 54.1467L100.164 53.9421ZM104.463 53.8747L104.333 54.0859L104.333 54.0864L104.463 53.8747ZM105.863 55.4026L105.642 55.5149L105.643 55.5162L105.863 55.4026ZM106.358 57.6344L106.109 57.633V57.6344H106.358ZM106.358 64.9741V65.2222H106.606V64.9741H106.358ZM102.223 64.9741H101.975V65.2222H102.223V64.9741ZM102.223 58.5032L101.975 58.501V58.5032H102.223ZM101.797 57.1626L101.61 57.3262L101.611 57.3278L101.797 57.1626ZM99.692 56.9005L99.8165 57.1151L99.8178 57.1143L99.692 56.9005ZM99.1078 57.5296L98.8867 57.417L98.8859 57.4186L99.1078 57.5296ZM98.65 58.5032V64.9741H99.1462V58.5032H98.65ZM98.8981 64.726H94.7639V65.2222H98.8981V64.726ZM95.012 64.9741V49.6357H94.5158V64.9741H95.012ZM94.7639 49.8838H98.7483V49.3875H94.7639V49.8838ZM98.5002 49.6357V55.6572H98.9964V49.6357H98.5002ZM98.7483 55.9053H98.8681V55.4091H98.7483V55.9053ZM99.1021 55.74C99.3453 55.0524 99.7457 54.5252 100.303 54.1475L100.025 53.7367C99.3736 54.1779 98.9103 54.7941 98.6342 55.5745L99.1021 55.74ZM100.304 54.1467C100.861 53.7649 101.536 53.5686 102.343 53.5686V53.0724C101.453 53.0724 100.675 53.2904 100.023 53.7375L100.304 54.1467ZM102.343 53.5686C103.118 53.5686 103.778 53.7441 104.333 54.0859L104.593 53.6635C103.949 53.2663 103.196 53.0724 102.343 53.0724V53.5686ZM104.333 54.0864C104.897 54.4312 105.333 54.9056 105.642 55.5149L106.085 55.2902C105.735 54.6014 105.237 54.0572 104.592 53.663L104.333 54.0864ZM105.643 55.5162C105.956 56.1248 106.114 56.8282 106.11 57.633L106.606 57.6359C106.611 56.763 106.439 55.9785 106.084 55.2889L105.643 55.5162ZM106.109 57.6344V64.9741H106.606V57.6344H106.109ZM106.358 64.726H102.223V65.2222H106.358V64.726ZM102.472 64.9741V58.5032H101.975V64.9741H102.472ZM102.472 58.5054C102.477 57.894 102.324 57.3807 101.982 56.9974L101.611 57.3278C101.849 57.5936 101.98 57.974 101.975 58.501L102.472 58.5054ZM101.983 56.999C101.641 56.6088 101.159 56.4277 100.576 56.4277V56.9239C101.051 56.9239 101.383 57.0673 101.61 57.3262L101.983 56.999ZM100.576 56.4277C100.203 56.4277 99.8638 56.5115 99.5662 56.6866L99.8178 57.1143C100.029 56.9898 100.279 56.9239 100.576 56.9239V56.4277ZM99.5675 56.6858C99.2736 56.8563 99.0466 57.1028 98.8867 57.417L99.3289 57.6421C99.4486 57.4071 99.611 57.2342 99.8165 57.1151L99.5675 56.6858ZM98.8859 57.4186C98.7306 57.7292 98.6554 58.0925 98.65 58.4999L99.1462 58.5065C99.1508 58.155 99.2154 57.8692 99.3297 57.6405L98.8859 57.4186ZM108.399 64.9741H108.15V65.2222H108.399V64.9741ZM108.399 53.4703V53.2222H108.15V53.4703H108.399ZM112.533 53.4703H112.781V53.2222H112.533V53.4703ZM112.533 64.9741V65.2222H112.781V64.9741H112.533ZM109.028 51.7177L108.859 51.8999L109.028 51.7177ZM109.028 49.0515L108.859 48.8693L109.028 49.0515ZM111.904 49.0515L111.734 49.2326L111.735 49.2336L111.904 49.0515ZM111.904 51.7177L111.735 51.5356L111.734 51.5367L111.904 51.7177ZM108.647 64.9741V53.4703H108.15V64.9741H108.647ZM108.399 53.7184H112.533V53.2222H108.399V53.7184ZM112.285 53.4703V64.9741H112.781V53.4703H112.285ZM112.533 64.726H108.399V65.2222H112.533V64.726ZM110.466 52.0238C109.967 52.0238 109.548 51.8614 109.196 51.5356L108.859 51.8999C109.306 52.3131 109.846 52.5201 110.466 52.5201V52.0238ZM109.196 51.5356C108.845 51.2105 108.677 50.8311 108.677 50.3846H108.18C108.18 50.9767 108.412 51.486 108.859 51.8999L109.196 51.5356ZM108.677 50.3846C108.677 49.9381 108.845 49.5587 109.196 49.2336L108.859 48.8693C108.412 49.2832 108.18 49.7925 108.18 50.3846H108.677ZM109.196 49.2336C109.548 48.9078 109.967 48.7454 110.466 48.7454V48.2491C109.846 48.2491 109.306 48.4562 108.859 48.8693L109.196 49.2336ZM110.466 48.7454C110.97 48.7454 111.388 48.9082 111.734 49.2326L112.073 48.8704C111.631 48.4558 111.09 48.2491 110.466 48.2491V48.7454ZM111.735 49.2336C112.087 49.5587 112.255 49.9381 112.255 50.3846H112.751C112.751 49.7925 112.52 49.2832 112.072 48.8693L111.735 49.2336ZM112.255 50.3846C112.255 50.8311 112.087 51.2105 111.735 51.5356L112.072 51.8999C112.52 51.486 112.751 50.9767 112.751 50.3846H112.255ZM111.734 51.5367C111.388 51.861 110.97 52.0238 110.466 52.0238V52.5201C111.09 52.5201 111.631 52.3134 112.073 51.8988L111.734 51.5367ZM125.154 57.215V57.4631H125.413L125.402 57.2049L125.154 57.215ZM121.35 57.215L121.102 57.2361L121.122 57.4631H121.35V57.215ZM121.103 56.6084L121.291 56.4474L121.103 56.6084ZM120.541 56.2189L120.444 56.4476L120.45 56.45L120.541 56.2189ZM118.878 56.2713L118.765 56.0503L118.878 56.2713ZM118.504 56.8256L118.752 56.8329L118.752 56.8204L118.504 56.8256ZM118.721 57.2974L118.548 57.4758L118.551 57.4786L118.721 57.2974ZM119.612 57.6344L119.568 57.8785L119.568 57.8786L119.612 57.6344ZM121.949 58.0538L121.993 57.8097L121.993 57.8096L121.949 58.0538ZM124.578 59.1398L124.413 59.3254L124.415 59.3269L124.578 59.1398ZM125.454 61.1695L125.702 61.171L125.702 61.168L125.454 61.1695ZM124.72 63.304L124.526 63.1488L124.526 63.149L124.72 63.304ZM122.75 64.697L122.841 64.9281L122.841 64.9278L122.75 64.697ZM115.785 64.1053L115.639 64.306L115.64 64.3064L115.785 64.1053ZM114.13 61.2593V61.0112H113.856L113.883 61.2834L114.13 61.2593ZM118.234 61.2593L118.479 61.2224L118.448 61.0112H118.234V61.2593ZM118.773 62.1056L118.637 62.3132L118.641 62.3157L118.773 62.1056ZM120.878 62.203L120.763 61.9829L120.762 61.9838L120.878 62.203ZM121.26 61.6488L121.508 61.654L121.508 61.6432L121.26 61.6488ZM120.93 61.1245L120.8 61.3355L120.802 61.3369L120.93 61.1245ZM119.942 60.81L119.985 60.5657L119.985 60.5656L119.942 60.81ZM117.905 60.4505L117.948 60.2061L117.947 60.206L117.905 60.4505ZM115.268 59.2821L115.442 59.1052L115.268 59.2821ZM114.399 57.0652L114.648 57.0666L114.648 57.0637L114.399 57.0652ZM115.029 55.0356L114.832 54.8845L114.832 54.8847L115.029 55.0356ZM116.863 53.7624L116.949 53.9955L116.949 53.9952L116.863 53.7624ZM123.634 54.354L123.489 54.5555L123.49 54.5559L123.634 54.354ZM125.154 56.9669H121.35V57.4631H125.154V56.9669ZM121.597 57.194C121.573 56.9107 121.472 56.6588 121.291 56.4474L120.914 56.7694C121.023 56.8975 121.087 57.05 121.102 57.2361L121.597 57.194ZM121.291 56.4474C121.117 56.2433 120.895 56.091 120.631 55.9879L120.45 56.45C120.646 56.5266 120.798 56.6339 120.914 56.7694L121.291 56.4474ZM120.637 55.9903C120.378 55.881 120.095 55.8285 119.792 55.8285V56.3247C120.038 56.3247 120.254 56.3671 120.444 56.4475L120.637 55.9903ZM119.792 55.8285C119.407 55.8285 119.062 55.8989 118.765 56.0503L118.991 56.4924C119.203 56.3841 119.467 56.3247 119.792 56.3247V55.8285ZM118.765 56.0503C118.611 56.129 118.48 56.2327 118.388 56.3683C118.295 56.5065 118.252 56.6637 118.256 56.8307L118.752 56.8204C118.75 56.7478 118.768 56.6928 118.799 56.6462C118.832 56.5971 118.891 56.5435 118.991 56.4924L118.765 56.0503ZM118.256 56.8183C118.248 57.0732 118.361 57.2944 118.548 57.4758L118.893 57.119C118.781 57.0109 118.749 56.9174 118.752 56.8329L118.256 56.8183ZM118.551 57.4786C118.763 57.6761 119.123 57.7977 119.568 57.8785L119.657 57.3903C119.222 57.3114 118.989 57.2083 118.89 57.1162L118.551 57.4786ZM119.568 57.8786L121.905 58.2981L121.993 57.8096L119.656 57.3902L119.568 57.8786ZM121.904 58.2979C123.061 58.5087 123.887 58.8587 124.413 59.3254L124.742 58.9542C124.12 58.4024 123.193 58.0284 121.993 57.8097L121.904 58.2979ZM124.415 59.3269C124.934 59.7792 125.201 60.385 125.206 61.1709L125.702 61.168C125.697 60.2563 125.38 59.509 124.741 58.9527L124.415 59.3269ZM125.206 61.168C125.201 61.9343 124.974 62.5909 124.526 63.1488L124.914 63.4592C125.435 62.8088 125.697 62.0423 125.702 61.171L125.206 61.168ZM124.526 63.149C124.078 63.7091 123.459 64.1499 122.659 64.4663L122.841 64.9278C123.709 64.585 124.403 64.0972 124.914 63.459L124.526 63.149ZM122.66 64.466C121.865 64.7773 120.95 64.9357 119.912 64.9357V65.4319C121 65.4319 121.978 65.2658 122.841 64.9281L122.66 64.466ZM119.912 64.9357C118.185 64.9357 116.867 64.582 115.93 63.9043L115.64 64.3064C116.69 65.0667 118.124 65.4319 119.912 65.4319V64.9357ZM115.931 63.9047C114.998 63.2259 114.484 62.3404 114.377 61.2353L113.883 61.2834C114.005 62.5349 114.595 63.5468 115.639 64.306L115.931 63.9047ZM114.13 61.5075H118.234V61.0112H114.13V61.5075ZM117.989 61.2963C118.054 61.7296 118.273 62.0742 118.637 62.3131L118.909 61.8982C118.665 61.7377 118.524 61.518 118.479 61.2224L117.989 61.2963ZM118.641 62.3157C119 62.5414 119.439 62.6459 119.942 62.6459V62.1496C119.506 62.1496 119.166 62.0593 118.905 61.8956L118.641 62.3157ZM119.942 62.6459C120.347 62.6459 120.703 62.5767 120.994 62.4222L120.762 61.9838C120.563 62.0889 120.295 62.1496 119.942 62.1496V62.6459ZM120.992 62.4232C121.306 62.2602 121.501 62.0018 121.508 61.654L121.012 61.6436C121.009 61.7751 120.949 61.8862 120.763 61.9829L120.992 62.4232ZM121.508 61.6432C121.501 61.3254 121.334 61.0786 121.059 60.9122L120.802 61.3369C120.956 61.4301 121.009 61.5328 121.012 61.6544L121.508 61.6432ZM121.061 60.9136C120.811 60.7586 120.444 60.6472 119.985 60.5657L119.898 61.0543C120.338 61.1325 120.631 61.2308 120.8 61.3355L121.061 60.9136ZM119.985 60.5656L117.948 60.2061L117.861 60.6948L119.899 61.0543L119.985 60.5656ZM117.947 60.206C116.802 60.0062 115.978 59.6314 115.442 59.1052L115.094 59.4591C115.727 60.0812 116.66 60.4853 117.862 60.6949L117.947 60.206ZM115.442 59.1052C114.911 58.583 114.643 57.9109 114.648 57.0666L114.151 57.0639C114.146 58.027 114.457 58.8328 115.094 59.4591L115.442 59.1052ZM114.648 57.0637C114.643 56.3115 114.839 55.6907 115.226 55.1864L114.832 54.8847C114.369 55.4889 114.146 56.2212 114.151 57.0668L114.648 57.0637ZM115.225 55.1867C115.621 54.6717 116.19 54.2721 116.949 53.9955L116.778 53.5293C115.949 53.8318 115.295 54.281 114.832 54.8845L115.225 55.1867ZM116.949 53.9952C117.714 53.7131 118.63 53.5686 119.702 53.5686V53.0724C118.587 53.0724 117.611 53.2224 116.778 53.5296L116.949 53.9952ZM119.702 53.5686C121.333 53.5686 122.587 53.9069 123.489 54.5555L123.779 54.1526C122.764 53.4231 121.396 53.0724 119.702 53.0724V53.5686ZM123.49 54.5559C124.389 55.1989 124.86 56.0807 124.906 57.2252L125.402 57.2049C125.349 55.9127 124.806 54.8872 123.778 54.1522L123.49 54.5559Z" fill="white"/>
<path d="M80.2249 45V29.6615H91.0098V33.0168H84.3891V35.6531H90.3507V39.0084H84.3891V45H80.2249ZM95.7469 40.6261C95.1427 40.6261 94.591 40.4788 94.0917 40.1843C93.5924 39.8847 93.193 39.4852 92.8934 38.9859C92.5988 38.4866 92.4515 37.9349 92.4515 37.3308C92.4515 36.7216 92.5988 36.1699 92.8934 35.6756C93.193 35.1763 93.5924 34.7794 94.0917 34.4848C94.591 34.1852 95.1427 34.0354 95.7469 34.0354C96.356 34.0354 96.9078 34.1852 97.4021 34.4848C97.9014 34.7794 98.2983 35.1763 98.5929 35.6756C98.8925 36.1699 99.0423 36.7216 99.0423 37.3308C99.0423 37.9349 98.8925 38.4866 98.5929 38.9859C98.2983 39.4852 97.9014 39.8847 97.4021 40.1843C96.9078 40.4788 96.356 40.6261 95.7469 40.6261ZM113.843 42.2738L113.873 37.3607H114.413L117.199 33.4962H121.842L117.169 39.5177H116L113.843 42.2738ZM110.129 45V29.6615H114.263V45H110.129ZM117.229 45L114.592 40.4464L117.289 37.5105L121.962 45H117.229Z" fill="white"/>
<path d="M80.2249 45H79.9768V45.2481H80.2249V45ZM80.2249 29.6615V29.4134H79.9768V29.6615H80.2249ZM91.0098 29.6615H91.2579V29.4134H91.0098V29.6615ZM91.0098 33.0168V33.2649H91.2579V33.0168H91.0098ZM84.3891 33.0168V32.7687H84.141V33.0168H84.3891ZM84.3891 35.6531H84.141V35.9012H84.3891V35.6531ZM90.3507 35.6531H90.5988V35.405H90.3507V35.6531ZM90.3507 39.0084V39.2565H90.5988V39.0084H90.3507ZM84.3891 39.0084V38.7603H84.141V39.0084H84.3891ZM84.3891 45V45.2481H84.6372V45H84.3891ZM80.4731 45V29.6615H79.9768V45H80.4731ZM80.2249 29.9097H91.0098V29.4134H80.2249V29.9097ZM90.7617 29.6615V33.0168H91.2579V29.6615H90.7617ZM91.0098 32.7687H84.3891V33.2649H91.0098V32.7687ZM84.141 33.0168V35.6531H84.6372V33.0168H84.141ZM84.3891 35.9012H90.3507V35.405H84.3891V35.9012ZM90.1026 35.6531V39.0084H90.5988V35.6531H90.1026ZM90.3507 38.7603H84.3891V39.2565H90.3507V38.7603ZM84.141 39.0084V45H84.6372V39.0084H84.141ZM84.3891 44.7519H80.2249V45.2481H84.3891V44.7519ZM94.0917 40.1843L93.9641 40.397L93.9656 40.398L94.0917 40.1843ZM92.8934 38.9859L92.6797 39.112L92.6806 39.1136L92.8934 38.9859ZM92.8934 35.6756L92.6806 35.5479L92.6803 35.5486L92.8934 35.6756ZM94.0917 34.4848L94.2178 34.6985L94.2194 34.6975L94.0917 34.4848ZM97.4021 34.4848L97.2735 34.697L97.276 34.6985L97.4021 34.4848ZM98.5929 35.6756L98.3792 35.8017L98.3807 35.8042L98.5929 35.6756ZM98.5929 38.9859L98.3801 38.8583L98.3792 38.8599L98.5929 38.9859ZM97.4021 40.1843L97.5291 40.3974L97.5297 40.397L97.4021 40.1843ZM95.7469 40.378C95.1851 40.378 94.6773 40.2416 94.2178 39.9706L93.9656 40.398C94.5048 40.7161 95.1003 40.8743 95.7469 40.8743V40.378ZM94.2194 39.9715C93.755 39.6929 93.3848 39.3227 93.1062 38.8583L92.6806 39.1136C93.0012 39.6478 93.4298 40.0765 93.9641 40.397L94.2194 39.9715ZM93.1071 38.8599C92.836 38.4004 92.6996 37.8925 92.6996 37.3308H92.2034C92.2034 37.9773 92.3616 38.5729 92.6797 39.112L93.1071 38.8599ZM92.6996 37.3308C92.6996 36.7636 92.8362 36.2562 93.1065 35.8026L92.6803 35.5486C92.3614 36.0836 92.2034 36.6796 92.2034 37.3308H92.6996ZM93.1062 35.8033C93.3846 35.3392 93.7543 34.9719 94.2178 34.6985L93.9656 34.2711C93.4306 34.5868 93.0014 35.0133 92.6806 35.5479L93.1062 35.8033ZM94.2194 34.6975C94.6786 34.422 95.1859 34.2835 95.7469 34.2835V33.7873C95.0995 33.7873 94.5034 33.9484 93.9641 34.272L94.2194 34.6975ZM95.7469 34.2835C96.3132 34.2835 96.8201 34.4222 97.2735 34.697L97.5307 34.2726C96.9955 33.9482 96.3988 33.7873 95.7469 33.7873V34.2835ZM97.276 34.6985C97.7391 34.9717 98.1059 35.3385 98.3792 35.8017L98.8066 35.5495C98.4907 35.0141 98.0636 34.587 97.5282 34.2711L97.276 34.6985ZM98.3807 35.8042C98.6555 36.2576 98.7941 36.7644 98.7941 37.3308H99.2904C99.2904 36.6788 99.1295 36.0822 98.8051 35.547L98.3807 35.8042ZM98.7941 37.3308C98.7941 37.8917 98.6557 38.399 98.3801 38.8583L98.8057 39.1136C99.1293 38.5743 99.2904 37.9781 99.2904 37.3308H98.7941ZM98.3792 38.8599C98.1057 39.3234 97.7384 39.6931 97.2744 39.9715L97.5297 40.397C98.0643 40.0763 98.4909 39.6471 98.8066 39.112L98.3792 38.8599ZM97.275 39.9711C96.8214 40.2415 96.314 40.378 95.7469 40.378V40.8743C96.398 40.8743 96.9941 40.7162 97.5291 40.3974L97.275 39.9711ZM100.984 45H100.736V45.2481H100.984V45ZM100.984 33.4962V33.248H100.736V33.4962H100.984ZM104.998 33.4962H105.246V33.248H104.998V33.4962ZM104.998 35.6831H104.75V35.9312H104.998V35.6831ZM105.118 35.6831V35.9312H105.31L105.358 35.7454L105.118 35.6831ZM106.114 33.9081L105.957 33.7158L105.956 33.7166L106.114 33.9081ZM108.256 33.3913L108.214 33.636L108.222 33.6371L108.256 33.3913ZM108.773 33.5036H109.021V33.3196L108.845 33.2662L108.773 33.5036ZM108.773 37.0312L108.693 37.266L109.021 37.3781V37.0312H108.773ZM108.017 36.8739L108.045 36.6275L108.017 36.8739ZM106.152 37.0986L106.273 37.3149L106.274 37.3142L106.152 37.0986ZM105.395 37.8625L105.611 37.9853L105.612 37.9839L105.395 37.8625ZM105.118 45V45.2481H105.366V45H105.118ZM101.232 45V33.4962H100.736V45H101.232ZM100.984 33.7443H104.998V33.248H100.984V33.7443ZM104.75 33.4962V35.6831H105.246V33.4962H104.75ZM104.998 35.9312H105.118V35.435H104.998V35.9312ZM105.358 35.7454C105.56 34.9666 105.872 34.4294 106.272 34.0995L105.956 33.7166C105.448 34.1357 105.095 34.7818 104.878 35.6208L105.358 35.7454ZM106.271 34.1004C106.684 33.7634 107.165 33.5945 107.724 33.5945V33.0982C107.055 33.0982 106.463 33.3038 105.957 33.7158L106.271 34.1004ZM107.724 33.5945C107.89 33.5945 108.054 33.6083 108.214 33.6359L108.298 33.1467C108.109 33.1144 107.918 33.0982 107.724 33.0982V33.5945ZM108.222 33.6371C108.39 33.6603 108.549 33.6951 108.701 33.7411L108.845 33.2662C108.667 33.2123 108.482 33.1722 108.29 33.1455L108.222 33.6371ZM108.525 33.5036V37.0312H109.021V33.5036H108.525ZM108.853 36.7964C108.627 36.719 108.356 36.6637 108.045 36.6275L107.988 37.1204C108.276 37.154 108.51 37.2035 108.693 37.266L108.853 36.7964ZM108.045 36.6275C107.74 36.5918 107.472 36.5734 107.245 36.5734V37.0696C107.447 37.0696 107.694 37.0861 107.988 37.1204L108.045 36.6275ZM107.245 36.5734C106.801 36.5734 106.394 36.6752 106.029 36.883L106.274 37.3142C106.558 37.1525 106.88 37.0696 107.245 37.0696V36.5734ZM106.03 36.8823C105.669 37.0851 105.385 37.3732 105.179 37.7412L105.612 37.9839C105.775 37.6928 105.995 37.4716 106.273 37.3149L106.03 36.8823ZM105.18 37.7398C104.97 38.1079 104.87 38.5336 104.87 39.0084H105.366C105.366 38.6044 105.451 38.2663 105.611 37.9853L105.18 37.7398ZM104.87 39.0084V45H105.366V39.0084H104.87ZM105.118 44.7519H100.984V45.2481H105.118V44.7519ZM113.843 42.2738L113.595 42.2723L113.591 42.9991L114.039 42.4267L113.843 42.2738ZM113.873 37.3607V37.1126H113.627L113.625 37.3592L113.873 37.3607ZM114.413 37.3607V37.6088H114.54L114.614 37.5058L114.413 37.3607ZM117.199 33.4962V33.248H117.072L116.997 33.3511L117.199 33.4962ZM121.842 33.4962L122.038 33.6483L122.349 33.248H121.842V33.4962ZM117.169 39.5177V39.7658H117.29L117.365 39.6698L117.169 39.5177ZM116 39.5177V39.2696H115.879L115.805 39.3648L116 39.5177ZM110.129 45H109.88V45.2481H110.129V45ZM110.129 29.6615V29.4134H109.88V29.6615H110.129ZM114.263 29.6615H114.511V29.4134H114.263V29.6615ZM114.263 45V45.2481H114.511V45H114.263ZM117.229 45L117.014 45.1243L117.086 45.2481H117.229V45ZM114.592 40.4464L114.41 40.2786L114.286 40.4129L114.378 40.5707L114.592 40.4464ZM117.289 37.5105L117.499 37.3792L117.326 37.1025L117.106 37.3427L117.289 37.5105ZM121.962 45V45.2481H122.409L122.172 44.8686L121.962 45ZM114.091 42.2753L114.121 37.3622L113.625 37.3592L113.595 42.2723L114.091 42.2753ZM113.873 37.6088H114.413V37.1126H113.873V37.6088ZM114.614 37.5058L117.4 33.6413L116.997 33.3511L114.211 37.2156L114.614 37.5058ZM117.199 33.7443H121.842V33.248H117.199V33.7443ZM121.646 33.344L116.973 39.3656L117.365 39.6698L122.038 33.6483L121.646 33.344ZM117.169 39.2696H116V39.7658H117.169V39.2696ZM115.805 39.3648L113.648 42.1209L114.039 42.4267L116.196 39.6706L115.805 39.3648ZM110.377 45V29.6615H109.88V45H110.377ZM110.129 29.9097H114.263V29.4134H110.129V29.9097ZM114.015 29.6615V45H114.511V29.6615H114.015ZM114.263 44.7519H110.129V45.2481H114.263V44.7519ZM117.443 44.8757L114.807 40.3221L114.378 40.5707L117.014 45.1243L117.443 44.8757ZM114.775 40.6142L117.471 37.6783L117.106 37.3427L114.41 40.2786L114.775 40.6142ZM117.078 37.6419L121.751 45.1314L122.172 44.8686L117.499 37.3792L117.078 37.6419ZM121.962 44.7519H117.229V45.2481H121.962V44.7519Z" fill="white"/>
<g filter="url(#filter0_d_1074_483)">
<path d="M60.2979 51.4017H52.2652V45.6227C52.2652 44.09 52.874 42.6201 53.9578 41.5364C55.0415 40.4526 56.5114 39.8437 58.0441 39.8437H60.2979C60.7523 41.1296 61.6467 42.2133 62.8229 42.9034C63.9992 43.5936 65.3815 43.8456 66.7256 43.6151C68.0698 43.3846 69.2891 42.6863 70.1681 41.6436C71.0472 40.601 71.5293 39.2812 71.5293 37.9174C71.5293 36.5537 71.0472 35.2338 70.1681 34.1912C69.2891 33.1486 68.0698 32.4503 66.7256 32.2197C65.3815 31.9892 63.9992 32.2413 62.8229 32.9314C61.6467 33.6216 60.7523 34.7053 60.2979 35.9911H58.0441C55.4897 35.9911 53.0398 37.0059 51.2335 38.8121C49.4273 40.6184 48.4125 43.0682 48.4125 45.6227V51.4017H44.2324C43.778 50.1159 42.8836 49.0321 41.7074 48.342C40.5311 47.6518 39.1488 47.3998 37.8047 47.6303C36.4606 47.8608 35.2412 48.5591 34.3622 49.6018C33.4831 50.6444 33.001 51.9642 33.001 53.328C33.001 54.6917 33.4831 56.0116 34.3622 57.0542C35.2412 58.0968 36.4606 58.7951 37.8047 59.0257C39.1488 59.2562 40.5311 59.0041 41.7074 58.314C42.8836 57.6239 43.778 56.5401 44.2324 55.2543H60.2979C60.7523 56.5401 61.6467 57.6239 62.8229 58.314C63.9992 59.0041 65.3815 59.2562 66.7256 59.0257C68.0698 58.7951 69.2891 58.0968 70.1681 57.0542C71.0472 56.0116 71.5293 54.6917 71.5293 53.328C71.5293 51.9642 71.0472 50.6444 70.1681 49.6018C69.2891 48.5591 68.0698 47.8608 66.7256 47.6303C65.3815 47.3998 63.9992 47.6518 62.8229 48.342C61.6467 49.0321 60.7523 50.1159 60.2979 51.4017ZM36.8546 53.328C36.8546 53.075 36.9043 52.8245 37.0011 52.5907C37.0979 52.357 37.2398 52.1446 37.4187 51.9657C37.5976 51.7868 37.8099 51.6449 38.0437 51.548C38.2774 51.4512 38.5279 51.4014 38.7809 51.4014C39.0339 51.4014 39.2844 51.4512 39.5181 51.548C39.7519 51.6449 39.9643 51.7868 40.1431 51.9657C40.322 52.1446 40.4639 52.357 40.5607 52.5907C40.6575 52.8245 40.7073 53.075 40.7072 53.328C40.7072 53.8388 40.5042 54.3287 40.1429 54.6899C39.7817 55.0511 39.2917 55.254 38.7809 55.254C38.2701 55.254 37.7801 55.0511 37.4189 54.6899C37.0577 54.3287 36.8547 53.8388 36.8546 53.328ZM63.8231 37.9174C63.823 37.6644 63.8728 37.4139 63.9696 37.1802C64.0664 36.9464 64.2083 36.734 64.3872 36.5551C64.5661 36.3762 64.7784 36.2343 65.0122 36.1375C65.2459 36.0406 65.4964 35.9908 65.7494 35.9908C66.0024 35.9908 66.2529 36.0406 66.4866 36.1375C66.7204 36.2343 66.9327 36.3762 67.1116 36.5551C67.2905 36.734 67.4324 36.9464 67.5292 37.1802C67.626 37.4139 67.6758 37.6644 67.6757 37.9174C67.6756 38.4283 67.4727 38.9182 67.1114 39.2794C66.7502 39.6405 66.2602 39.8435 65.7494 39.8435C65.2386 39.8435 64.7486 39.6405 64.3874 39.2794C64.0261 38.9182 63.8232 38.4283 63.8231 37.9174ZM63.8231 53.328C63.823 53.075 63.8728 52.8245 63.9696 52.5907C64.0664 52.357 64.2083 52.1446 64.3872 51.9657C64.5661 51.7868 64.7784 51.6449 65.0122 51.548C65.2459 51.4512 65.4964 51.4014 65.7494 51.4014C66.0024 51.4014 66.2529 51.4512 66.4866 51.548C66.7204 51.6449 66.9327 51.7868 67.1116 51.9657C67.2905 52.1446 67.4324 52.357 67.5292 52.5907C67.626 52.8245 67.6758 53.075 67.6757 53.328C67.6756 53.8388 67.4727 54.3287 67.1114 54.6899C66.7502 55.0511 66.2602 55.254 65.7494 55.254C65.2386 55.254 64.7486 55.0511 64.3874 54.6899C64.0261 54.3287 63.8232 53.8388 63.8231 53.328Z" fill="url(#paint0_linear_1074_483)"/>
<path d="M52.7438 45.6227V50.9231H59.9693C60.4904 49.6709 61.4057 48.6186 62.5807 47.9292C63.8543 47.1819 65.3511 46.909 66.8065 47.1586C68.2619 47.4082 69.5822 48.1643 70.5341 49.2933C71.4859 50.4222 72.0079 51.8513 72.0079 53.328C72.0079 54.8046 71.4859 56.2338 70.5341 57.3627C69.5822 58.4917 68.2619 59.2478 66.8065 59.4974C65.3511 59.747 63.8543 59.4741 62.5807 58.7268C61.4057 58.0373 60.4904 56.9851 59.9693 55.7329H44.561C44.0399 56.9851 43.1246 58.0373 41.9496 58.7268C40.676 59.4741 39.1792 59.747 37.7238 59.4974C36.2684 59.2478 34.9481 58.4917 33.9963 57.3627C33.0444 56.2338 32.5224 54.8046 32.5224 53.328C32.5224 51.8513 33.0444 50.4222 33.9963 49.2933C34.9481 48.1643 36.2684 47.4082 37.7238 47.1586C39.1792 46.909 40.676 47.1819 41.9496 47.9292C43.1246 48.6186 44.0399 49.6709 44.561 50.9231H47.9339V45.6227C47.9339 42.9413 48.9991 40.3697 50.8951 38.4737C52.7911 36.5777 55.3627 35.5125 58.0441 35.5125H59.9693C60.4904 34.2603 61.4057 33.2081 62.5807 32.5186C63.8543 31.7713 65.3511 31.4984 66.8065 31.748C68.2619 31.9976 69.5822 32.7537 70.5341 33.8827C71.4859 35.0117 72.0079 36.4408 72.0079 37.9174C72.0079 39.3941 71.4859 40.8232 70.5341 41.9521C69.5822 43.0811 68.2619 43.8372 66.8065 44.0868C65.3511 44.3365 63.8543 44.0635 62.5807 43.3162C61.4057 42.6268 60.4904 41.5745 59.9693 40.3224H58.0441C56.6384 40.3224 55.2902 40.8808 54.2962 41.8748C53.3022 42.8688 52.7438 44.217 52.7438 45.6227ZM37.4433 52.7738C37.3706 52.9495 37.3332 53.1378 37.3332 53.3279C37.3333 53.7118 37.4858 54.08 37.7573 54.3515C38.0288 54.6229 38.397 54.7754 38.7809 54.7754C39.1648 54.7754 39.533 54.6229 39.8045 54.3515C40.076 54.08 40.2286 53.7118 40.2286 53.3279C40.2286 53.1378 40.1912 52.9495 40.1185 52.7738C40.0457 52.5982 39.9391 52.4385 39.8047 52.3041C39.6702 52.1696 39.5106 52.063 39.335 51.9902C39.1593 51.9174 38.971 51.88 38.7809 51.88C38.5908 51.88 38.4025 51.9174 38.2268 51.9902C38.0512 52.063 37.8916 52.1696 37.7571 52.3041C37.6227 52.4385 37.5161 52.5982 37.4433 52.7738ZM64.4118 37.3633C64.3391 37.5389 64.3017 37.7272 64.3017 37.9174C64.3017 38.3013 64.4543 38.6694 64.7258 38.9409C64.9973 39.2123 65.3655 39.3648 65.7494 39.3648C66.1333 39.3648 66.5015 39.2123 66.773 38.9409C67.0445 38.6694 67.197 38.3013 67.1971 37.9174C67.1971 37.7272 67.1597 37.5389 67.087 37.3633C67.0142 37.1876 66.9076 37.028 66.7732 36.8935C66.6387 36.7591 66.4791 36.6524 66.3035 36.5796L66.4866 36.1375L66.3035 36.5796C66.1278 36.5069 65.9395 36.4694 65.7494 36.4694C65.5593 36.4694 65.371 36.5069 65.1953 36.5796L65.0122 36.1375L65.1953 36.5796C65.0197 36.6524 64.8601 36.7591 64.7256 36.8935C64.5912 37.028 64.4846 37.1876 64.4118 37.3633ZM64.4118 52.7738C64.3391 52.9495 64.3017 53.1378 64.3017 53.3279C64.3017 53.7118 64.4543 54.08 64.7258 54.3515C64.9973 54.6229 65.3655 54.7754 65.7494 54.7754C66.1333 54.7754 66.5015 54.6229 66.773 54.3515C67.0445 54.08 67.197 53.7118 67.1971 53.3279C67.1971 53.1378 67.1597 52.9495 67.087 52.7738C67.0142 52.5982 66.9076 52.4385 66.7732 52.3041C66.6387 52.1696 66.4791 52.063 66.3035 51.9902C66.1278 51.9174 65.9395 51.88 65.7494 51.88C65.5593 51.88 65.371 51.9174 65.1953 51.9902C65.0197 52.063 64.8601 52.1696 64.7256 52.3041C64.5912 52.4385 64.4846 52.5982 64.4118 52.7738Z" stroke="white" stroke-width="0.957226"/>
</g>
<g opacity="0.3" filter="url(#filter1_f_1074_483)">
<rect x="35.9609" y="31.8853" width="85.0905" height="33.9262" fill="url(#paint1_linear_1074_483)"/>
</g>
<defs>
<filter id="filter0_d_1074_483" x="25.2666" y="24.7625" width="53.9961" height="42.4395" filterUnits="userSpaceOnUse" color-interpolation-filters="sRGB">
<feFlood flood-opacity="0" result="BackgroundImageFix"/>
<feColorMatrix in="SourceAlpha" type="matrix" values="0 0 0 0 0 0 0 0 0 0 0 0 0 0 0 0 0 0 127 0" result="hardAlpha"/>
<feOffset dy="0.359631"/>
<feGaussianBlur stdDeviation="3.38819"/>
<feComposite in2="hardAlpha" operator="out"/>
<feColorMatrix type="matrix" values="0 0 0 0 1 0 0 0 0 1 0 0 0 0 1 0 0 0 0.2 0"/>
<feBlend mode="normal" in2="BackgroundImageFix" result="effect1_dropShadow_1074_483"/>
<feBlend mode="normal" in="SourceGraphic" in2="effect1_dropShadow_1074_483" result="shape"/>
</filter>
<filter id="filter1_f_1074_483" x="-0.716007" y="-4.79169" width="158.444" height="107.28" filterUnits="userSpaceOnUse" color-interpolation-filters="sRGB">
<feFlood flood-opacity="0" result="BackgroundImageFix"/>
<feBlend mode="normal" in="SourceGraphic" in2="BackgroundImageFix" result="shape"/>
<feGaussianBlur stdDeviation="18.3385" result="effect1_foregroundBlur_1074_483"/>
</filter>
<linearGradient id="paint0_linear_1074_483" x1="54.0998" y1="58.9369" x2="53.7483" y2="31.2788" gradientUnits="userSpaceOnUse">
<stop stop-color="#D8D479"/>
<stop offset="0.497917" stop-color="#72CDF3"/>
<stop offset="1" stop-color="#8E97FF"/>
</linearGradient>
<linearGradient id="paint1_linear_1074_483" x1="36.5036" y1="47.2328" x2="123.591" y2="51.1982" gradientUnits="userSpaceOnUse">
<stop stop-color="#D8D479"/>
<stop offset="0.497917" stop-color="#72CDF3"/>
<stop offset="1" stop-color="#8E97FF"/>
</linearGradient>
</defs>
</svg>
