<svg width="350" height="31" viewBox="0 0 350 31" fill="none" xmlns="http://www.w3.org/2000/svg">
<path d="M2.67102 16.4363C3.00651 16.4363 3.31288 16.3545 3.59014 16.1909C3.8674 16.0245 4.0892 15.8027 4.25556 15.5255C4.41914 15.2482 4.50093 14.9418 4.50093 14.6063C4.50093 14.2681 4.41914 13.9617 4.25556 13.6872C4.0892 13.41 3.8674 13.1896 3.59014 13.026C3.31288 12.8596 3.00651 12.7764 2.67102 12.7764C2.33277 12.7764 2.0264 12.8596 1.75191 13.026C1.47465 13.1896 1.25423 13.41 1.09065 13.6872C0.924291 13.9617 0.841113 14.2681 0.841113 14.6063C0.841113 14.9418 0.924291 15.2482 1.09065 15.5255C1.25423 15.8027 1.47465 16.0245 1.75191 16.1909C2.0264 16.3545 2.33277 16.4363 2.67102 16.4363Z" fill="white"/>
<g filter="url(#filter0_d_1072_397)">
<path d="M20.3132 7.03418H13.498V8.9284H15.7827V25H18.0285V8.9284H20.3132V7.03418ZM27.985 25.2148C30.016 25.2148 31.461 24.3946 31.461 21.8365V10.1977C31.461 7.63955 30.016 6.81937 27.985 6.81937C25.9736 6.81937 24.5286 7.63955 24.5286 10.1977V21.8365C24.5286 24.3946 25.9736 25.2148 27.985 25.2148ZM27.985 23.3011C27.3211 23.3011 26.7743 22.9691 26.7743 21.8169V10.2173C26.7743 9.0651 27.3211 8.73312 27.985 8.73312C28.6685 8.73312 29.1958 9.0651 29.1958 10.2173V21.8169C29.1958 22.9691 28.6685 23.3011 27.985 23.3011ZM45.1899 23.1058V7.03418H42.9441V25H47.9433V23.1058H45.1899ZM52.9529 25H55.1986V7.03418H52.9529V25ZM60.0108 7.03418L62.0612 25H66.0645L68.1149 7.03418H65.9278L64.2093 22.9496H63.9164L62.1979 7.03418H60.0108ZM77.8262 8.9284V7.03418H72.9246V25H77.8262V23.1058H75.1703V16.9349H77.7871V15.0602H75.1703V8.9284H77.8262ZM94.8555 25H97.0427L94.9922 7.03418H90.989L88.9385 25H91.1257L91.5162 21.3483H94.465L94.8555 25ZM91.7311 19.454L92.8442 9.08462H93.1371L94.2502 19.454H91.7311ZM101.852 25H103.942V12.5606L103.883 10.6664H104.04L106.891 25H109.859V7.03418H107.769V19.4736L107.828 21.3678H107.672L104.821 7.03418H101.852V25ZM118.775 7.03418H114.928V25H118.775C121.352 25 121.841 23.965 121.841 21.6021V10.4321C121.841 8.06916 121.352 7.03418 118.775 7.03418ZM119.595 21.6216C119.595 22.7738 119.282 23.1058 118.286 23.1058H117.173V8.9284H118.286C119.282 8.9284 119.595 9.26038 119.595 10.4125V21.6216ZM138.87 15.8023V15.6851C139.866 15.236 140.159 14.4158 140.159 13.1465V10.4321C140.159 8.06916 139.67 7.03418 137.171 7.03418H133.343V25H137.19C139.768 25 140.237 23.965 140.237 21.6021V18.4776C140.237 17.1497 139.885 16.271 138.87 15.8023ZM136.643 8.9284C137.659 8.9284 137.952 9.26038 137.952 10.4125V13.4784C137.952 14.7087 137.581 15.0407 136.604 15.0407H135.589V8.9284H136.643ZM137.991 21.6021C137.991 22.7543 137.678 23.0862 136.683 23.0862H135.589V16.5834H136.643C137.62 16.5834 137.991 16.8959 137.991 18.1456V21.6021ZM152.448 25L151.042 18.8096C151.784 18.3214 152.174 17.4426 152.174 16.1147V10.4321C152.174 8.06916 151.706 7.03418 149.265 7.03418H145.32V25H147.566V19.3759H148.757C148.894 19.3759 149.05 19.3759 149.187 19.3564L150.417 25H152.448ZM148.679 17.7356H147.566V8.9284H148.679C149.675 8.9284 149.968 9.24085 149.968 10.4125V16.2514C149.968 17.4036 149.675 17.7356 148.679 17.7356ZM162.153 8.9284V7.03418H157.251V25H162.153V23.1058H159.497V16.9349H162.114V15.0602H159.497V8.9284H162.153ZM172.629 25H174.816L172.766 7.03418H168.762L166.712 25H168.899L169.29 21.3483H172.238L172.629 25ZM169.504 19.454L170.617 9.08462H170.91L172.023 19.454H169.504ZM184.847 7.03418H178.032V8.9284H180.316V25H182.562V8.9284H184.847V7.03418ZM194.337 7.03418V15.1774H191.857V7.03418H189.612V25H191.857V17.0911H194.337V25H196.583V7.03418H194.337ZM206.559 8.9284V7.03418H201.657V25H206.559V23.1058H203.903V16.9349H206.519V15.0602H203.903V8.9284H206.559ZM221.401 25.2148C223.432 25.2148 224.877 24.3946 224.877 21.8365V10.1977C224.877 7.63955 223.432 6.81937 221.401 6.81937C219.389 6.81937 217.944 7.63955 217.944 10.1977V21.8365C217.944 24.3946 219.389 25.2148 221.401 25.2148ZM221.401 23.3011C220.737 23.3011 220.19 22.9691 220.19 21.8169V10.2173C220.19 9.0651 220.737 8.73312 221.401 8.73312C222.084 8.73312 222.612 9.0651 222.612 10.2173V21.8169C222.612 22.9691 222.084 23.3011 221.401 23.3011ZM233.869 7.03418H229.944V25H232.19V20.7234H233.869C236.33 20.7234 236.798 19.7079 236.798 17.345V10.4125C236.798 8.06916 236.33 7.03418 233.869 7.03418ZM234.592 17.3645C234.592 18.5167 234.299 18.8487 233.303 18.8487H232.19V8.9284H233.303C234.299 8.9284 234.592 9.24085 234.592 10.393V17.3645ZM246.845 8.9284V7.03418H241.944V25H246.845V23.1058H244.189V16.9349H246.806V15.0602H244.189V8.9284H246.845ZM251.815 25H253.905V12.5606L253.846 10.6664H254.002L256.853 25H259.822V7.03418H257.732V19.4736L257.791 21.3678H257.634L254.783 7.03418H251.815V25ZM274.743 25.2148C276.755 25.2148 278.161 24.3946 278.161 21.856V19.2783C278.161 14.8259 273.532 15.5875 273.532 12.6583V10.1977C273.532 9.0651 274.06 8.71359 274.743 8.71359C275.427 8.71359 275.954 9.0651 275.954 10.1977V12.8731H278.122V10.1782C278.122 7.63955 276.735 6.81937 274.724 6.81937C272.732 6.81937 271.326 7.63955 271.326 10.1782V12.7559C271.326 17.2083 275.934 16.4467 275.934 19.3759V21.8365C275.934 22.9691 275.427 23.3206 274.724 23.3206C274.04 23.3206 273.513 22.9691 273.513 21.8365V19.1611H271.345V21.856C271.345 24.3946 272.732 25.2148 274.743 25.2148ZM286.717 25.2148C288.748 25.2148 290.193 24.3946 290.193 21.8365V10.1977C290.193 7.63955 288.748 6.81937 286.717 6.81937C284.705 6.81937 283.26 7.63955 283.26 10.1977V21.8365C283.26 24.3946 284.705 25.2148 286.717 25.2148ZM286.717 23.3011C286.053 23.3011 285.506 22.9691 285.506 21.8169V10.2173C285.506 9.0651 286.053 8.73312 286.717 8.73312C287.4 8.73312 287.927 9.0651 287.927 10.2173V21.8169C287.927 22.9691 287.4 23.3011 286.717 23.3011ZM298.716 25.2148C300.747 25.2148 302.192 24.3946 302.192 21.8365V7.03418H299.927V21.8169C299.927 22.9691 299.4 23.3011 298.716 23.3011C298.052 23.3011 297.506 22.9691 297.506 21.8169V7.03418H295.26V21.8365C295.26 24.3946 296.705 25.2148 298.716 25.2148ZM314.387 25L312.981 18.8096C313.723 18.3214 314.114 17.4426 314.114 16.1147V10.4321C314.114 8.06916 313.645 7.03418 311.204 7.03418H307.26V25H309.505V19.3759H310.697C310.833 19.3759 310.989 19.3759 311.126 19.3564L312.356 25H314.387ZM310.618 17.7356H309.505V8.9284H310.618C311.614 8.9284 311.907 9.24085 311.907 10.4125V16.2514C311.907 17.4036 311.614 17.7356 310.618 17.7356ZM322.647 25.2343C324.678 25.2343 326.123 24.4142 326.123 21.856V17.5793H323.858V21.856C323.858 22.9886 323.331 23.3401 322.647 23.3401C321.983 23.3401 321.436 22.9886 321.436 21.856V10.2173C321.436 9.0651 321.983 8.73312 322.647 8.73312C323.331 8.73312 323.858 9.0651 323.858 10.2173V14.4158H326.123V10.1977C326.123 7.63955 324.678 6.81937 322.647 6.81937C320.636 6.81937 319.191 7.63955 319.191 10.1977V21.856C319.191 24.4142 320.636 25.2343 322.647 25.2343ZM336.092 8.9284V7.03418H331.19V25H336.092V23.1058H333.436V16.9349H336.053V15.0602H333.436V8.9284H336.092Z" fill="white"/>
</g>
<path d="M347.497 16.4363C347.833 16.4363 348.139 16.3545 348.416 16.1909C348.694 16.0245 348.915 15.8027 349.082 15.5255C349.245 15.2482 349.327 14.9418 349.327 14.6063C349.327 14.2681 349.245 13.9617 349.082 13.6872C348.915 13.41 348.694 13.1896 348.416 13.026C348.139 12.8596 347.833 12.7764 347.497 12.7764C347.159 12.7764 346.853 12.8596 346.578 13.026C346.301 13.1896 346.08 13.41 345.917 13.6872C345.75 13.9617 345.667 14.2681 345.667 14.6063C345.667 14.9418 345.75 15.2482 345.917 15.5255C346.08 15.8027 346.301 16.0245 346.578 16.1909C346.853 16.3545 347.159 16.4363 347.497 16.4363Z" fill="white"/>
<defs>
<filter id="filter0_d_1072_397" x="12.9306" y="6.25191" width="328.268" height="24.0893" filterUnits="userSpaceOnUse" color-interpolation-filters="sRGB">
<feFlood flood-opacity="0" result="BackgroundImageFix"/>
<feColorMatrix in="SourceAlpha" type="matrix" values="0 0 0 0 0 0 0 0 0 0 0 0 0 0 0 0 0 0 127 0" result="hardAlpha"/>
<feOffset dx="2.26971" dy="2.26971"/>
<feGaussianBlur stdDeviation="1.41857"/>
<feComposite in2="hardAlpha" operator="out"/>
<feColorMatrix type="matrix" values="0 0 0 0 1 0 0 0 0 1 0 0 0 0 1 0 0 0 0.3 0"/>
<feBlend mode="normal" in2="BackgroundImageFix" result="effect1_dropShadow_1072_397"/>
<feBlend mode="normal" in="SourceGraphic" in2="effect1_dropShadow_1072_397" result="shape"/>
</filter>
</defs>
</svg>
