<svg width="1281" height="1024" viewBox="0 0 1281 1024" fill="none" xmlns="http://www.w3.org/2000/svg">
<path opacity="0.05" d="M25.8222 0L25.8222 1036.23M114.515 0L114.515 1036.23M203.209 0L203.209 1036.23M291.902 0L291.902 1036.23M380.595 0L380.595 1036.23M469.288 0L469.288 1036.23M557.982 0L557.982 1036.23M646.675 0V1036.23M735.368 0V1036.23M824.061 0V1036.23M912.755 0V1036.23M1001.45 0V1036.23M1090.14 0V1036.23M1185.57 0V1036.23M1281 0V1036.23M1264.16 33.13H5.48656e-05M1264.16 105.832H5.09887e-05M1264.16 178.534H4.71118e-05M1264.16 251.236H4.32349e-05M1264.16 323.938H3.93579e-05M1264.16 396.64H3.5481e-05M1264.16 469.341H3.16041e-05M1264.16 542.043H2.77272e-05M1264.16 614.745H2.38503e-05M1264.16 687.447H1.99734e-05M1264.16 760.149H1.60965e-05M1264.16 832.851H1.22196e-05M1264.16 905.553H8.34271e-06M1264.16 983.776H4.17136e-06M1264.16 1062H0" stroke="url(#paint0_linear_1074_725)" stroke-width="1.4"/>
<defs>
<linearGradient id="paint0_linear_1074_725" x1="8.17014" y1="480.429" x2="1321.32" y2="509.184" gradientUnits="userSpaceOnUse">
<stop stop-color="#D8D479"/>
<stop offset="0.497917" stop-color="#72CDF3"/>
<stop offset="1" stop-color="#8E97FF"/>
</linearGradient>
</defs>
</svg>
